<svg width="241" height="60" viewBox="0 0 241 60" fill="none" xmlns="http://www.w3.org/2000/svg">
<g clip-path="url(#clip0_512028_1287)">
<rect x="1.8938" y="1" width="238" height="58" rx="4" stroke="url(#paint0_linear_512028_1287)" stroke-width="2"/>
<path d="M90.0344 38H97.2649C100.874 38 103.077 36.1719 103.077 33.207V33.1836C103.077 30.9922 101.507 29.3516 99.2336 29.1406V28.9297C100.933 28.6602 102.245 27.0898 102.245 25.3203V25.2969C102.245 22.707 100.312 21.0898 97.1008 21.0898H90.0344V38ZM96.3625 23.4453C98.1907 23.4453 99.2571 24.3242 99.2571 25.8242V25.8477C99.2571 27.3828 98.1204 28.2148 95.9758 28.2148H93.0579V23.4453H96.3625ZM96.4563 30.3594C98.7649 30.3594 99.9836 31.2617 99.9836 32.9727V32.9961C99.9836 34.7188 98.8 35.6445 96.5735 35.6445H93.0579V30.3594H96.4563ZM111.55 38.2578C115.031 38.2578 116.741 36.2539 117.152 34.6016L117.187 34.4961H114.409L114.374 34.5781C114.093 35.1641 113.191 35.9609 111.609 35.9609C109.628 35.9609 108.386 34.625 108.351 32.3281H117.304V31.3672C117.304 27.5 115.054 24.9453 111.409 24.9453C107.765 24.9453 105.433 27.582 105.433 31.6133V31.625C105.433 35.7031 107.741 38.2578 111.55 38.2578ZM111.445 27.2305C113.073 27.2305 114.257 28.2734 114.456 30.3711H108.374C108.597 28.332 109.816 27.2305 111.445 27.2305ZM125.73 42.5C129.468 42.5 131.835 40.6367 131.835 37.6836V25.1914H128.917V27.3008H128.765C128.038 25.8477 126.656 24.9805 124.886 24.9805C121.581 24.9805 119.566 27.5352 119.566 31.2383V31.2617C119.566 34.8945 121.581 37.4023 124.827 37.4023C126.597 37.4023 127.991 36.6523 128.73 35.2812H128.929V37.7305C128.929 39.3711 127.769 40.2969 125.777 40.2969C124.148 40.2969 123.175 39.7227 122.976 38.9023L122.964 38.8672H120.046L120.034 38.9023C120.327 41.0586 122.355 42.5 125.73 42.5ZM125.73 35.082C123.702 35.082 122.554 33.5234 122.554 31.2617V31.2383C122.554 28.9766 123.702 27.4062 125.73 27.4062C127.745 27.4062 128.976 28.9766 128.976 31.2383V31.2617C128.976 33.5234 127.757 35.082 125.73 35.082ZM136.909 23.0469C137.859 23.0469 138.644 22.2852 138.644 21.3242C138.644 20.375 137.859 19.6016 136.909 19.6016C135.948 19.6016 135.163 20.375 135.163 21.3242C135.163 22.2852 135.948 23.0469 136.909 23.0469ZM135.445 38H138.363V25.1914H135.445V38ZM141.948 38H144.866V30.5352C144.866 28.6133 145.945 27.3945 147.679 27.3945C149.448 27.3945 150.257 28.4023 150.257 30.3945V38H153.175V29.7148C153.175 26.668 151.616 24.9453 148.757 24.9453C146.906 24.9453 145.675 25.7773 145.066 27.1484H144.866V25.1914H141.948V38Z" fill="url(#paint1_linear_512028_1287)"/>
</g>
<defs>
<linearGradient id="paint0_linear_512028_1287" x1="7.3938" y1="3.38315" x2="127.729" y2="131.617" gradientUnits="userSpaceOnUse">
<stop stop-color="#0085FF"/>
<stop offset="1" stop-color="#EA6CFF"/>
</linearGradient>
<linearGradient id="paint1_linear_512028_1287" x1="31.0667" y1="14.9171" x2="94.1936" y2="109.393" gradientUnits="userSpaceOnUse">
<stop stop-color="#0085FF"/>
<stop offset="1" stop-color="#EA6CFF"/>
</linearGradient>
<clipPath id="clip0_512028_1287">
<rect x="0.893799" width="240" height="60" rx="5" fill="white"/>
</clipPath>
</defs>
</svg>
