<svg width="740" height="54" viewBox="0 0 740 54" fill="none" xmlns="http://www.w3.org/2000/svg">
<g filter="url(#filter0_d_512018_9539)">
<path d="M344.033 32.7996C347.432 32.7996 349.844 30.7878 350.146 27.8386L350.156 27.7312H347.285L347.266 27.8093C346.953 29.3132 345.732 30.2996 344.043 30.2996C341.816 30.2996 340.439 28.4246 340.439 25.3972V25.3777C340.439 22.3503 341.816 20.4851 344.033 20.4851C345.713 20.4851 346.973 21.5593 347.275 23.1414V23.2097H350.146V23.0925C349.873 20.114 347.373 17.9851 344.033 17.9851C339.941 17.9851 337.422 20.8074 337.422 25.3777V25.3972C337.422 29.9675 339.951 32.7996 344.033 32.7996ZM352.588 32.4382H355.439V26.4226C355.439 24.8992 356.465 23.9714 358.086 23.9714C358.525 23.9714 358.965 24.0398 359.395 24.1375V21.6472C359.111 21.5691 358.711 21.5105 358.33 21.5105C356.934 21.5105 355.957 22.1941 355.615 23.3562H355.439V21.6863H352.588V32.4382ZM365.771 32.6628C368.916 32.6628 370.303 30.8464 370.635 29.4988L370.654 29.4011H367.998L367.969 29.4597C367.773 29.8699 367.08 30.5339 365.83 30.5339C364.316 30.5339 363.369 29.5085 363.34 27.741H370.742V26.8523C370.742 23.6003 368.789 21.4519 365.654 21.4519C362.52 21.4519 360.518 23.6492 360.518 27.0671V27.0769C360.518 30.5242 362.5 32.6628 365.771 32.6628ZM365.703 23.5906C366.943 23.5906 367.832 24.3914 368.008 25.9539H363.369C363.545 24.4304 364.463 23.5906 365.703 23.5906ZM376.006 32.6042C377.412 32.6042 378.545 32.0085 379.092 31.0125H379.268V32.4382H382.08V25.0945C382.08 22.7996 380.469 21.4519 377.617 21.4519C374.912 21.4519 373.135 22.7019 372.91 24.5867L372.9 24.6746H375.537L375.557 24.6355C375.781 24.0007 376.436 23.6394 377.461 23.6394C378.633 23.6394 379.268 24.1667 379.268 25.0945V25.9832L376.67 26.1394C373.994 26.2957 372.5 27.4285 372.5 29.3621V29.3816C372.5 31.3347 373.955 32.6042 376.006 32.6042ZM375.283 29.2058V29.1863C375.283 28.405 375.879 27.946 377.1 27.8679L379.268 27.7312V28.5222C379.268 29.655 378.281 30.5242 376.963 30.5242C375.977 30.5242 375.283 30.0261 375.283 29.2058ZM389.336 32.4773C389.883 32.4773 390.41 32.4187 390.762 32.3503V30.2312C390.488 30.2605 390.293 30.28 389.922 30.28C388.955 30.28 388.545 29.8503 388.545 28.8835V23.8347H390.762V21.6863H388.545V19.1179H385.664V21.6863H384.004V23.8347H385.664V29.5378C385.664 31.6277 386.719 32.4773 389.336 32.4773ZM397.783 32.6628C400.928 32.6628 402.314 30.8464 402.646 29.4988L402.666 29.4011H400.01L399.98 29.4597C399.785 29.8699 399.092 30.5339 397.842 30.5339C396.328 30.5339 395.381 29.5085 395.352 27.741H402.754V26.8523C402.754 23.6003 400.801 21.4519 397.666 21.4519C394.531 21.4519 392.529 23.6492 392.529 27.0671V27.0769C392.529 30.5242 394.512 32.6628 397.783 32.6628ZM397.715 23.5906C398.955 23.5906 399.844 24.3914 400.02 25.9539H395.381C395.557 24.4304 396.475 23.5906 397.715 23.5906Z" fill="url(#paint0_linear_512018_9539)"/>
<rect x="1" y="1.43823" width="738" height="49" rx="4" stroke="url(#paint1_linear_512018_9539)" stroke-width="2"/>
</g>
<defs>
<filter id="filter0_d_512018_9539" x="0" y="0.438232" width="740" height="53.391" filterUnits="userSpaceOnUse" color-interpolation-filters="sRGB">
<feFlood flood-opacity="0" result="BackgroundImageFix"/>
<feColorMatrix in="SourceAlpha" type="matrix" values="0 0 0 0 0 0 0 0 0 0 0 0 0 0 0 0 0 0 127 0" result="hardAlpha"/>
<feOffset dy="2.39098"/>
<feColorMatrix type="matrix" values="0 0 0 0 0 0 0 0 0 0 0 0 0 0 0 0 0 0 0.043 0"/>
<feBlend mode="normal" in2="BackgroundImageFix" result="effect1_dropShadow_512018_9539"/>
<feBlend mode="normal" in="SourceGraphic" in2="effect1_dropShadow_512018_9539" result="shape"/>
</filter>
<linearGradient id="paint0_linear_512018_9539" x1="337.842" y1="13.9607" x2="388.051" y2="47.6491" gradientUnits="userSpaceOnUse">
<stop stop-color="#0085FF"/>
<stop offset="1" stop-color="#EA6CFF"/>
</linearGradient>
<linearGradient id="paint1_linear_512018_9539" x1="20.0417" y1="3.31391" x2="69.7437" y2="195.44" gradientUnits="userSpaceOnUse">
<stop stop-color="#0085FF"/>
<stop offset="1" stop-color="#EA6CFF"/>
</linearGradient>
</defs>
</svg>
