<svg width="114" height="27" viewBox="0 0 114 27" fill="none" xmlns="http://www.w3.org/2000/svg">
<path d="M17.1079 19.2812C19.7095 19.2812 21.5767 17.7734 21.8735 15.5156V15.4609H19.897L19.8892 15.5C19.6001 16.7422 18.5376 17.5391 17.1079 17.5391C15.186 17.5391 13.9907 15.9375 13.9907 13.3672V13.3516C13.9907 10.7891 15.186 9.1875 17.1001 9.1875C18.522 9.1875 19.6001 10.0703 19.8892 11.4062L19.897 11.4375H21.8735V11.375C21.6079 9.07031 19.6626 7.44531 17.1001 7.44531C13.9048 7.44531 11.9282 9.70312 11.9282 13.3594V13.375C11.9282 17.0156 13.9126 19.2812 17.1079 19.2812ZM23.9204 19H25.8657V14.0391C25.8657 12.8203 26.7173 12.0469 28.0142 12.0469C28.3501 12.0469 28.6704 12.0938 28.9829 12.1562V10.4141C28.7954 10.3594 28.4907 10.3203 28.1938 10.3203C27.0688 10.3203 26.2876 10.8594 25.9985 11.7734H25.8657V10.4609H23.9204V19ZM34.0142 19.1719C36.3345 19.1719 37.4751 17.8359 37.7485 16.7344L37.772 16.6641H35.9204L35.897 16.7188C35.7095 17.1094 35.1079 17.6406 34.0532 17.6406C32.7329 17.6406 31.9048 16.75 31.8813 15.2188H37.8501V14.5781C37.8501 12 36.3501 10.2969 33.9204 10.2969C31.4907 10.2969 29.936 12.0547 29.936 14.7422V14.75C29.936 17.4688 31.4751 19.1719 34.0142 19.1719ZM33.9438 11.8203C35.0298 11.8203 35.8188 12.5156 35.9517 13.9141H31.897C32.0454 12.5547 32.8579 11.8203 33.9438 11.8203ZM42.1235 19.1406C43.2485 19.1406 44.1548 18.6562 44.6235 17.8281H44.7563V19H46.6782V13.1641C46.6782 11.3594 45.4438 10.2969 43.2485 10.2969C41.2173 10.2969 39.8423 11.25 39.6548 12.6875L39.647 12.7578H41.4829L41.4907 12.7266C41.686 12.1641 42.2642 11.8438 43.1548 11.8438C44.2017 11.8438 44.7563 12.3125 44.7563 13.1641V13.8984L42.561 14.0312C40.4829 14.1562 39.3188 15.0469 39.3188 16.5703V16.5859C39.3188 18.1406 40.4985 19.1406 42.1235 19.1406ZM41.2407 16.4922V16.4766C41.2407 15.7734 41.7485 15.375 42.8345 15.3047L44.7563 15.1797V15.8672C44.7563 16.8828 43.8892 17.6484 42.7173 17.6484C41.8579 17.6484 41.2407 17.2188 41.2407 16.4922ZM52.3735 19.0391C52.7485 19.0391 53.1079 19.0078 53.3892 18.9531V17.4531C53.1548 17.4766 53.0063 17.4844 52.7329 17.4844C51.9204 17.4844 51.5845 17.125 51.5845 16.2734V11.9688H53.3892V10.4609H51.5845V8.36719H49.6079V10.4609H48.2798V11.9688H49.6079V16.7344C49.6079 18.3828 50.4126 19.0391 52.3735 19.0391ZM58.9048 19.1719C61.2251 19.1719 62.3657 17.8359 62.6392 16.7344L62.6626 16.6641H60.811L60.7876 16.7188C60.6001 17.1094 59.9985 17.6406 58.9438 17.6406C57.6235 17.6406 56.7954 16.75 56.772 15.2188H62.7407V14.5781C62.7407 12 61.2407 10.2969 58.811 10.2969C56.3813 10.2969 54.8267 12.0547 54.8267 14.7422V14.75C54.8267 17.4688 56.3657 19.1719 58.9048 19.1719ZM58.8345 11.8203C59.9204 11.8203 60.7095 12.5156 60.8423 13.9141H56.7876C56.936 12.5547 57.7485 11.8203 58.8345 11.8203ZM72.2173 19H74.5767L78.4751 7.72656H76.2485L73.4595 16.6719H73.3267L70.5376 7.72656H68.3188L72.2173 19ZM83.0142 19.1719C85.5688 19.1719 87.1235 17.5 87.1235 14.7344V14.7188C87.1235 11.9688 85.561 10.2969 83.0142 10.2969C80.4751 10.2969 78.9048 11.9766 78.9048 14.7188V14.7344C78.9048 17.5 80.4517 19.1719 83.0142 19.1719ZM83.0142 17.5938C81.6626 17.5938 80.8892 16.5391 80.8892 14.7422V14.7266C80.8892 12.9297 81.6626 11.8672 83.0142 11.8672C84.3579 11.8672 85.1313 12.9297 85.1313 14.7266V14.7422C85.1313 16.5391 84.3657 17.5938 83.0142 17.5938ZM92.436 19.0391C92.811 19.0391 93.1704 19.0078 93.4517 18.9531V17.4531C93.2173 17.4766 93.0688 17.4844 92.7954 17.4844C91.9829 17.4844 91.647 17.125 91.647 16.2734V11.9688H93.4517V10.4609H91.647V8.36719H89.6704V10.4609H88.3423V11.9688H89.6704V16.7344C89.6704 18.3828 90.4751 19.0391 92.436 19.0391ZM98.9673 19.1719C101.288 19.1719 102.428 17.8359 102.702 16.7344L102.725 16.6641H100.874L100.85 16.7188C100.663 17.1094 100.061 17.6406 99.0063 17.6406C97.686 17.6406 96.8579 16.75 96.8345 15.2188H102.803V14.5781C102.803 12 101.303 10.2969 98.8735 10.2969C96.4438 10.2969 94.8892 12.0547 94.8892 14.7422V14.75C94.8892 17.4688 96.4282 19.1719 98.9673 19.1719ZM98.897 11.8203C99.9829 11.8203 100.772 12.5156 100.905 13.9141H96.8501C96.9985 12.5547 97.811 11.8203 98.897 11.8203Z" fill="url(#paint0_linear_512029_1455)"/>
<rect x="1.5376" y="0.75" width="111.5" height="25.5" rx="4.25" stroke="url(#paint1_linear_512029_1455)" stroke-width="1.5"/>
<defs>
<linearGradient id="paint0_linear_512029_1455" x1="13.3063" y1="3.29687" x2="59.4006" y2="52.9507" gradientUnits="userSpaceOnUse">
<stop stop-color="#0085FF"/>
<stop offset="1" stop-color="#EA6CFF"/>
</linearGradient>
<linearGradient id="paint1_linear_512029_1455" x1="3.84801" y1="1.52242" x2="57.7887" y2="61.6649" gradientUnits="userSpaceOnUse">
<stop stop-color="#0085FF"/>
<stop offset="1" stop-color="#EA6CFF"/>
</linearGradient>
</defs>
</svg>
