<svg width="76" height="80" viewBox="0 0 76 80" fill="none" xmlns="http://www.w3.org/2000/svg">
<path d="M16.632 39.592C16.632 42.888 15.704 45.184 13.848 46.48C12.136 47.68 9.784 48.28 6.792 48.28H0V47.824H1.584V31.936H0V31.48H7.416C10.488 31.48 12.792 32.112 14.328 33.376C15.864 34.624 16.632 36.696 16.632 39.592ZM6.264 47.824H7.176C8.792 47.824 9.944 47.256 10.632 46.12C11.336 44.968 11.688 43.048 11.688 40.36V38.968C11.688 35.368 11 33.2 9.624 32.464C8.968 32.112 8.04 31.936 6.84 31.936H6.264V47.824Z" fill="url(#paint0_linear_511993_14649)"/>
<path d="M24.1652 48.52C22.1012 48.52 20.5492 47.992 19.5092 46.936C18.4852 45.864 17.9732 44.384 17.9732 42.496C17.9732 40.592 18.5492 39.136 19.7012 38.128C20.8692 37.12 22.3492 36.616 24.1412 36.616C27.7732 36.616 29.5172 38.44 29.3732 42.088H22.6052V43.024C22.6052 44.592 22.8052 45.776 23.2052 46.576C23.6052 47.376 24.3012 47.776 25.2932 47.776C27.1492 47.776 28.3652 46.784 28.9412 44.8L29.3732 44.872C29.0692 46.024 28.5172 46.92 27.7172 47.56C26.9332 48.2 25.7492 48.52 24.1652 48.52ZM22.6292 41.608H25.1012V40.432C25.1012 39.136 25.0212 38.256 24.8612 37.792C24.7172 37.312 24.4132 37.072 23.9492 37.072C23.5012 37.072 23.1652 37.328 22.9412 37.84C22.7332 38.336 22.6292 39.2 22.6292 40.432V41.608Z" fill="url(#paint1_linear_511993_14649)"/>
<path d="M29.3788 37.288V36.856H36.5548V37.288H35.0428L37.9228 45.256L40.5148 37.288H38.9068V36.856H42.1468V37.288H41.0908L37.5388 48.28H34.8028L30.3628 37.288H29.3788Z" fill="url(#paint2_linear_511993_14649)"/>
<path d="M49.5349 43.552V41.512C49.5349 39.96 49.4469 38.832 49.2709 38.128C49.1109 37.408 48.7269 37.048 48.1189 37.048C47.7669 37.048 47.4789 37.152 47.2549 37.36C47.0469 37.552 46.8949 37.88 46.7989 38.344C46.6549 39.064 46.5829 40.16 46.5829 41.632V43.504C46.5829 45.248 46.6309 46.296 46.7269 46.648C46.8389 47 46.9509 47.288 47.0629 47.512C47.2389 47.896 47.5829 48.088 48.0949 48.088C48.7189 48.088 49.1269 47.728 49.3189 47.008C49.4629 46.496 49.5349 45.344 49.5349 43.552ZM48.0469 48.52C46.0469 48.52 44.5349 48.008 43.5109 46.984C42.4869 45.96 41.9749 44.496 41.9749 42.592C41.9749 40.672 42.5189 39.2 43.6069 38.176C44.7109 37.136 46.2549 36.616 48.2389 36.616C50.2229 36.616 51.7029 37.096 52.6789 38.056C53.6549 39 54.1429 40.448 54.1429 42.4C54.1429 46.48 52.1109 48.52 48.0469 48.52Z" fill="url(#paint3_linear_511993_14649)"/>
<path d="M56.0141 44.848V37.288H54.6941V36.856H56.0141V33.76L60.4781 32.656V36.856H63.5981V37.288H60.4781V45.376C60.4781 46.128 60.5501 46.68 60.6941 47.032C60.8541 47.384 61.1741 47.56 61.6541 47.56C62.1341 47.56 62.5501 47.32 62.9021 46.84C63.2701 46.36 63.5101 45.704 63.6221 44.872L64.0301 44.92C63.9021 46.024 63.5501 46.904 62.9741 47.56C62.3981 48.2 61.4461 48.52 60.1181 48.52C58.7901 48.52 57.7741 48.256 57.0701 47.728C56.3661 47.2 56.0141 46.24 56.0141 44.848Z" fill="url(#paint4_linear_511993_14649)"/>
<path d="M70.5714 48.52C68.5074 48.52 66.9554 47.992 65.9154 46.936C64.8914 45.864 64.3794 44.384 64.3794 42.496C64.3794 40.592 64.9554 39.136 66.1074 38.128C67.2754 37.12 68.7554 36.616 70.5474 36.616C74.1794 36.616 75.9234 38.44 75.7794 42.088H69.0114V43.024C69.0114 44.592 69.2114 45.776 69.6114 46.576C70.0114 47.376 70.7074 47.776 71.6994 47.776C73.5554 47.776 74.7714 46.784 75.3474 44.8L75.7794 44.872C75.4754 46.024 74.9234 46.92 74.1234 47.56C73.3394 48.2 72.1554 48.52 70.5714 48.52ZM69.0354 41.608H71.5074V40.432C71.5074 39.136 71.4274 38.256 71.2674 37.792C71.1234 37.312 70.8194 37.072 70.3554 37.072C69.9074 37.072 69.5714 37.328 69.3474 37.84C69.1394 38.336 69.0354 39.2 69.0354 40.432V41.608Z" fill="url(#paint5_linear_511993_14649)"/>
<defs>
<linearGradient id="paint0_linear_511993_14649" x1="2.05258" y1="32.4408" x2="35.81" y2="72.4397" gradientUnits="userSpaceOnUse">
<stop stop-color="#0085FF"/>
<stop offset="1" stop-color="#EA6CFF"/>
</linearGradient>
<linearGradient id="paint1_linear_511993_14649" x1="2.05258" y1="32.4408" x2="35.81" y2="72.4397" gradientUnits="userSpaceOnUse">
<stop stop-color="#0085FF"/>
<stop offset="1" stop-color="#EA6CFF"/>
</linearGradient>
<linearGradient id="paint2_linear_511993_14649" x1="2.05258" y1="32.4408" x2="35.81" y2="72.4397" gradientUnits="userSpaceOnUse">
<stop stop-color="#0085FF"/>
<stop offset="1" stop-color="#EA6CFF"/>
</linearGradient>
<linearGradient id="paint3_linear_511993_14649" x1="2.05258" y1="32.4408" x2="35.81" y2="72.4397" gradientUnits="userSpaceOnUse">
<stop stop-color="#0085FF"/>
<stop offset="1" stop-color="#EA6CFF"/>
</linearGradient>
<linearGradient id="paint4_linear_511993_14649" x1="2.05258" y1="32.4408" x2="35.81" y2="72.4397" gradientUnits="userSpaceOnUse">
<stop stop-color="#0085FF"/>
<stop offset="1" stop-color="#EA6CFF"/>
</linearGradient>
<linearGradient id="paint5_linear_511993_14649" x1="2.05258" y1="32.4408" x2="35.81" y2="72.4397" gradientUnits="userSpaceOnUse">
<stop stop-color="#0085FF"/>
<stop offset="1" stop-color="#EA6CFF"/>
</linearGradient>
</defs>
</svg>
