<svg width="1440" height="930" viewBox="0 0 1440 930" fill="none" xmlns="http://www.w3.org/2000/svg">
<g clip-path="url(#clip0_511977_787)">
<rect width="1440" height="930" fill="#211F24"/>
<path d="M505.775 546H507.621L509.037 541.967H514.643L516.059 546H517.904L512.709 531.908H510.971L505.775 546ZM511.762 534.184H511.918L514.125 540.473H509.555L511.762 534.184ZM520.258 546H521.957V531.293H520.258V546ZM525.316 546H527.016V531.293H525.316V546ZM538.881 546H540.6L544.496 535.473H542.699L539.818 544.145H539.662L536.781 535.473H534.984L538.881 546ZM550.678 546.186C553.676 546.186 555.531 544.115 555.531 540.746V540.727C555.531 537.348 553.676 535.287 550.678 535.287C547.68 535.287 545.824 537.348 545.824 540.727V540.746C545.824 544.115 547.68 546.186 550.678 546.186ZM550.678 544.682C548.686 544.682 547.562 543.227 547.562 540.746V540.727C547.562 538.236 548.686 536.791 550.678 536.791C552.67 536.791 553.793 538.236 553.793 540.727V540.746C553.793 543.227 552.67 544.682 550.678 544.682ZM561.908 546.078C562.24 546.078 562.562 546.039 562.895 545.98V544.535C562.582 544.564 562.416 544.574 562.113 544.574C561.02 544.574 560.59 544.076 560.59 542.836V536.879H562.895V535.473H560.59V532.748H558.832V535.473H557.172V536.879H558.832V543.266C558.832 545.277 559.74 546.078 561.908 546.078ZM569.574 546.186C572.055 546.186 573.559 544.779 573.92 543.354L573.939 543.275H572.24L572.201 543.363C571.918 543.998 571.039 544.672 569.613 544.672C567.738 544.672 566.537 543.402 566.488 541.225H574.066V540.561C574.066 537.416 572.328 535.287 569.467 535.287C566.605 535.287 564.75 537.514 564.75 540.766V540.775C564.75 544.076 566.566 546.186 569.574 546.186ZM569.457 536.801C571.01 536.801 572.162 537.787 572.338 539.867H566.518C566.703 537.865 567.895 536.801 569.457 536.801ZM580.316 546.186C582.709 546.186 584.535 544.887 584.535 543.012V542.992C584.535 541.488 583.578 540.629 581.596 540.15L579.975 539.76C578.734 539.457 578.207 539.008 578.207 538.295V538.275C578.207 537.348 579.125 536.703 580.375 536.703C581.645 536.703 582.465 537.279 582.689 538.109H584.359C584.125 536.391 582.592 535.287 580.385 535.287C578.148 535.287 576.469 536.605 576.469 538.354V538.363C576.469 539.877 577.357 540.736 579.33 541.205L580.961 541.596C582.26 541.908 582.797 542.406 582.797 543.119V543.139C582.797 544.096 581.791 544.77 580.375 544.77C579.027 544.77 578.188 544.193 577.904 543.314H576.166C576.361 545.053 577.973 546.186 580.316 546.186ZM595.688 546.186C597.104 546.186 598.207 545.57 598.871 544.447H599.027V546H600.727V538.793C600.727 536.605 599.291 535.287 596.723 535.287C594.477 535.287 592.875 536.4 592.602 538.051L592.592 538.109H594.291L594.301 538.08C594.574 537.26 595.404 536.791 596.664 536.791C598.236 536.791 599.027 537.494 599.027 538.793V539.75L596.01 539.936C593.559 540.082 592.172 541.166 592.172 543.041V543.061C592.172 544.975 593.686 546.186 595.688 546.186ZM593.91 543.021V543.002C593.91 541.957 594.613 541.391 596.215 541.293L599.027 541.117V542.074C599.027 543.578 597.768 544.711 596.039 544.711C594.818 544.711 593.91 544.086 593.91 543.021ZM603.832 546H605.531V539.477C605.531 537.934 606.684 536.908 608.305 536.908C608.676 536.908 608.998 536.947 609.35 537.006V535.355C609.184 535.326 608.822 535.287 608.5 535.287C607.074 535.287 606.088 535.932 605.688 537.035H605.531V535.473H603.832V546ZM615.453 546.186C617.934 546.186 619.438 544.779 619.799 543.354L619.818 543.275H618.119L618.08 543.363C617.797 543.998 616.918 544.672 615.492 544.672C613.617 544.672 612.416 543.402 612.367 541.225H619.945V540.561C619.945 537.416 618.207 535.287 615.346 535.287C612.484 535.287 610.629 537.514 610.629 540.766V540.775C610.629 544.076 612.445 546.186 615.453 546.186ZM615.336 536.801C616.889 536.801 618.041 537.787 618.217 539.867H612.396C612.582 537.865 613.773 536.801 615.336 536.801ZM632.533 546.186C635.531 546.186 637.387 544.115 637.387 540.746V540.727C637.387 537.348 635.531 535.287 632.533 535.287C629.535 535.287 627.68 537.348 627.68 540.727V540.746C627.68 544.115 629.535 546.186 632.533 546.186ZM632.533 544.682C630.541 544.682 629.418 543.227 629.418 540.746V540.727C629.418 538.236 630.541 536.791 632.533 536.791C634.525 536.791 635.648 538.236 635.648 540.727V540.746C635.648 543.227 634.525 544.682 632.533 544.682ZM640.727 546H642.426V536.879H644.818V535.473H642.426V534.35C642.426 533.197 642.914 532.602 644.125 532.602C644.428 532.602 644.711 532.611 644.916 532.65V531.293C644.564 531.225 644.193 531.195 643.783 531.195C641.781 531.195 640.727 532.201 640.727 534.301V535.473H638.979V536.879H640.727V546ZM652.895 546H654.594V539.477C654.594 537.934 655.746 536.908 657.367 536.908C657.738 536.908 658.061 536.947 658.412 537.006V535.355C658.246 535.326 657.885 535.287 657.562 535.287C656.137 535.287 655.15 535.932 654.75 537.035H654.594V535.473H652.895V546ZM664.516 546.186C666.996 546.186 668.5 544.779 668.861 543.354L668.881 543.275H667.182L667.143 543.363C666.859 543.998 665.98 544.672 664.555 544.672C662.68 544.672 661.479 543.402 661.43 541.225H669.008V540.561C669.008 537.416 667.27 535.287 664.408 535.287C661.547 535.287 659.691 537.514 659.691 540.766V540.775C659.691 544.076 661.508 546.186 664.516 546.186ZM664.398 536.801C665.951 536.801 667.104 537.787 667.279 539.867H661.459C661.645 537.865 662.836 536.801 664.398 536.801ZM674.535 546.186C675.951 546.186 677.055 545.57 677.719 544.447H677.875V546H679.574V538.793C679.574 536.605 678.139 535.287 675.57 535.287C673.324 535.287 671.723 536.4 671.449 538.051L671.439 538.109H673.139L673.148 538.08C673.422 537.26 674.252 536.791 675.512 536.791C677.084 536.791 677.875 537.494 677.875 538.793V539.75L674.857 539.936C672.406 540.082 671.02 541.166 671.02 543.041V543.061C671.02 544.975 672.533 546.186 674.535 546.186ZM672.758 543.021V543.002C672.758 541.957 673.461 541.391 675.062 541.293L677.875 541.117V542.074C677.875 543.578 676.615 544.711 674.887 544.711C673.666 544.711 672.758 544.086 672.758 543.021ZM682.777 546H684.477V531.293H682.777V546ZM693.363 549.516H695.062V544.34H695.219C695.795 545.463 697.055 546.186 698.5 546.186C701.176 546.186 702.914 544.047 702.914 540.746V540.727C702.914 537.445 701.166 535.287 698.5 535.287C697.035 535.287 695.863 535.98 695.219 537.152H695.062V535.473H693.363V549.516ZM698.109 544.682C696.195 544.682 695.023 543.178 695.023 540.746V540.727C695.023 538.295 696.195 536.791 698.109 536.791C700.033 536.791 701.176 538.275 701.176 540.727V540.746C701.176 543.197 700.033 544.682 698.109 544.682ZM709.867 546.186C712.348 546.186 713.852 544.779 714.213 543.354L714.232 543.275H712.533L712.494 543.363C712.211 543.998 711.332 544.672 709.906 544.672C708.031 544.672 706.83 543.402 706.781 541.225H714.359V540.561C714.359 537.416 712.621 535.287 709.76 535.287C706.898 535.287 705.043 537.514 705.043 540.766V540.775C705.043 544.076 706.859 546.186 709.867 546.186ZM709.75 536.801C711.303 536.801 712.455 537.787 712.631 539.867H706.811C706.996 537.865 708.188 536.801 709.75 536.801ZM721.322 546.186C724.32 546.186 726.176 544.115 726.176 540.746V540.727C726.176 537.348 724.32 535.287 721.322 535.287C718.324 535.287 716.469 537.348 716.469 540.727V540.746C716.469 544.115 718.324 546.186 721.322 546.186ZM721.322 544.682C719.33 544.682 718.207 543.227 718.207 540.746V540.727C718.207 538.236 719.33 536.791 721.322 536.791C723.314 536.791 724.438 538.236 724.438 540.727V540.746C724.438 543.227 723.314 544.682 721.322 544.682ZM728.812 549.516H730.512V544.34H730.668C731.244 545.463 732.504 546.186 733.949 546.186C736.625 546.186 738.363 544.047 738.363 540.746V540.727C738.363 537.445 736.615 535.287 733.949 535.287C732.484 535.287 731.312 535.98 730.668 537.152H730.512V535.473H728.812V549.516ZM733.559 544.682C731.645 544.682 730.473 543.178 730.473 540.746V540.727C730.473 538.295 731.645 536.791 733.559 536.791C735.482 536.791 736.625 538.275 736.625 540.727V540.746C736.625 543.197 735.482 544.682 733.559 544.682ZM741.117 546H742.816V531.293H741.117V546ZM750.375 546.186C752.855 546.186 754.359 544.779 754.721 543.354L754.74 543.275H753.041L753.002 543.363C752.719 543.998 751.84 544.672 750.414 544.672C748.539 544.672 747.338 543.402 747.289 541.225H754.867V540.561C754.867 537.416 753.129 535.287 750.268 535.287C747.406 535.287 745.551 537.514 745.551 540.766V540.775C745.551 544.076 747.367 546.186 750.375 546.186ZM750.258 536.801C751.811 536.801 752.963 537.787 753.139 539.867H747.318C747.504 537.865 748.695 536.801 750.258 536.801ZM766.742 546.186C769.135 546.186 770.961 544.887 770.961 543.012V542.992C770.961 541.488 770.004 540.629 768.021 540.15L766.4 539.76C765.16 539.457 764.633 539.008 764.633 538.295V538.275C764.633 537.348 765.551 536.703 766.801 536.703C768.07 536.703 768.891 537.279 769.115 538.109H770.785C770.551 536.391 769.018 535.287 766.811 535.287C764.574 535.287 762.895 536.605 762.895 538.354V538.363C762.895 539.877 763.783 540.736 765.756 541.205L767.387 541.596C768.686 541.908 769.223 542.406 769.223 543.119V543.139C769.223 544.096 768.217 544.77 766.801 544.77C765.453 544.77 764.613 544.193 764.33 543.314H762.592C762.787 545.053 764.398 546.186 766.742 546.186ZM777.24 546.078C777.572 546.078 777.895 546.039 778.227 545.98V544.535C777.914 544.564 777.748 544.574 777.445 544.574C776.352 544.574 775.922 544.076 775.922 542.836V536.879H778.227V535.473H775.922V532.748H774.164V535.473H772.504V536.879H774.164V543.266C774.164 545.277 775.072 546.078 777.24 546.078ZM784.936 546.186C787.934 546.186 789.789 544.115 789.789 540.746V540.727C789.789 537.348 787.934 535.287 784.936 535.287C781.938 535.287 780.082 537.348 780.082 540.727V540.746C780.082 544.115 781.938 546.186 784.936 546.186ZM784.936 544.682C782.943 544.682 781.82 543.227 781.82 540.746V540.727C781.82 538.236 782.943 536.791 784.936 536.791C786.928 536.791 788.051 538.236 788.051 540.727V540.746C788.051 543.227 786.928 544.682 784.936 544.682ZM792.426 546H794.125V539.477C794.125 537.934 795.277 536.908 796.898 536.908C797.27 536.908 797.592 536.947 797.943 537.006V535.355C797.777 535.326 797.416 535.287 797.094 535.287C795.668 535.287 794.682 535.932 794.281 537.035H794.125V535.473H792.426V546ZM804.047 546.186C806.527 546.186 808.031 544.779 808.393 543.354L808.412 543.275H806.713L806.674 543.363C806.391 543.998 805.512 544.672 804.086 544.672C802.211 544.672 801.01 543.402 800.961 541.225H808.539V540.561C808.539 537.416 806.801 535.287 803.939 535.287C801.078 535.287 799.223 537.514 799.223 540.766V540.775C799.223 544.076 801.039 546.186 804.047 546.186ZM803.93 536.801C805.482 536.801 806.635 537.787 806.811 539.867H800.99C801.176 537.865 802.367 536.801 803.93 536.801ZM815.062 546.186C816.527 546.186 817.699 545.492 818.344 544.32H818.5V546H820.199V531.293H818.5V537.133H818.344C817.768 536.01 816.508 535.287 815.062 535.287C812.387 535.287 810.648 537.426 810.648 540.727V540.746C810.648 544.027 812.396 546.186 815.062 546.186ZM815.453 544.682C813.529 544.682 812.387 543.197 812.387 540.746V540.727C812.387 538.275 813.529 536.791 815.453 536.791C817.367 536.791 818.539 538.295 818.539 540.727V540.746C818.539 543.178 817.367 544.682 815.453 544.682ZM498.256 574.186C501.254 574.186 503.109 572.115 503.109 568.746V568.727C503.109 565.348 501.254 563.287 498.256 563.287C495.258 563.287 493.402 565.348 493.402 568.727V568.746C493.402 572.115 495.258 574.186 498.256 574.186ZM498.256 572.682C496.264 572.682 495.141 571.227 495.141 568.746V568.727C495.141 566.236 496.264 564.791 498.256 564.791C500.248 564.791 501.371 566.236 501.371 568.727V568.746C501.371 571.227 500.248 572.682 498.256 572.682ZM505.746 574H507.445V567.77C507.445 565.924 508.51 564.791 510.189 564.791C511.869 564.791 512.65 565.699 512.65 567.594V574H514.35V567.184C514.35 564.684 513.031 563.287 510.668 563.287C509.115 563.287 508.129 563.941 507.602 565.055H507.445V563.473H505.746V574ZM525.941 574.186C527.357 574.186 528.461 573.57 529.125 572.447H529.281V574H530.98V566.793C530.98 564.605 529.545 563.287 526.977 563.287C524.73 563.287 523.129 564.4 522.855 566.051L522.846 566.109H524.545L524.555 566.08C524.828 565.26 525.658 564.791 526.918 564.791C528.49 564.791 529.281 565.494 529.281 566.793V567.75L526.264 567.936C523.812 568.082 522.426 569.166 522.426 571.041V571.061C522.426 572.975 523.939 574.186 525.941 574.186ZM524.164 571.021V571.002C524.164 569.957 524.867 569.391 526.469 569.293L529.281 569.117V570.074C529.281 571.578 528.021 572.711 526.293 572.711C525.072 572.711 524.164 572.086 524.164 571.021ZM534.086 574H535.785V567.77C535.785 565.924 536.85 564.791 538.529 564.791C540.209 564.791 540.99 565.699 540.99 567.594V574H542.689V567.184C542.689 564.684 541.371 563.287 539.008 563.287C537.455 563.287 536.469 563.941 535.941 565.055H535.785V563.473H534.086V574ZM552.289 561.441C552.934 561.441 553.461 560.914 553.461 560.27C553.461 559.625 552.934 559.098 552.289 559.098C551.645 559.098 551.117 559.625 551.117 560.27C551.117 560.914 551.645 561.441 552.289 561.441ZM551.43 574H553.129V563.473H551.43V574ZM556.332 574H558.031V567.477C558.031 565.992 559.076 564.791 560.453 564.791C561.781 564.791 562.641 565.602 562.641 566.852V574H564.34V567.232C564.34 565.895 565.307 564.791 566.771 564.791C568.256 564.791 568.969 565.562 568.969 567.115V574H570.668V566.725C570.668 564.518 569.467 563.287 567.318 563.287C565.863 563.287 564.662 564.02 564.096 565.133H563.939C563.451 564.039 562.455 563.287 561.029 563.287C559.652 563.287 558.656 563.941 558.188 565.074H558.031V563.473H556.332V574ZM573.734 574H575.434V567.477C575.434 565.992 576.479 564.791 577.855 564.791C579.184 564.791 580.043 565.602 580.043 566.852V574H581.742V567.232C581.742 565.895 582.709 564.791 584.174 564.791C585.658 564.791 586.371 565.562 586.371 567.115V574H588.07V566.725C588.07 564.518 586.869 563.287 584.721 563.287C583.266 563.287 582.064 564.02 581.498 565.133H581.342C580.854 564.039 579.857 563.287 578.432 563.287C577.055 563.287 576.059 563.941 575.59 565.074H575.434V563.473H573.734V574ZM594.662 574.186C596.205 574.186 597.27 573.551 597.787 572.428H597.943V574H599.643V563.473H597.943V569.703C597.943 571.549 596.957 572.682 595.102 572.682C593.422 572.682 592.738 571.773 592.738 569.879V563.473H591.039V570.289C591.039 572.779 592.27 574.186 594.662 574.186ZM606.557 574.078C606.889 574.078 607.211 574.039 607.543 573.98V572.535C607.23 572.564 607.064 572.574 606.762 572.574C605.668 572.574 605.238 572.076 605.238 570.836V564.879H607.543V563.473H605.238V560.748H603.48V563.473H601.82V564.879H603.48V571.266C603.48 573.277 604.389 574.078 606.557 574.078ZM612.973 574.186C614.389 574.186 615.492 573.57 616.156 572.447H616.312V574H618.012V566.793C618.012 564.605 616.576 563.287 614.008 563.287C611.762 563.287 610.16 564.4 609.887 566.051L609.877 566.109H611.576L611.586 566.08C611.859 565.26 612.689 564.791 613.949 564.791C615.521 564.791 616.312 565.494 616.312 566.793V567.75L613.295 567.936C610.844 568.082 609.457 569.166 609.457 571.041V571.061C609.457 572.975 610.971 574.186 612.973 574.186ZM611.195 571.021V571.002C611.195 569.957 611.898 569.391 613.5 569.293L616.312 569.117V570.074C616.312 571.578 615.053 572.711 613.324 572.711C612.104 572.711 611.195 572.086 611.195 571.021ZM626.352 574.186C629.018 574.186 630.766 572.027 630.766 568.746V568.727C630.766 565.426 629.027 563.287 626.352 563.287C624.906 563.287 623.646 564.01 623.07 565.133H622.914V559.293H621.215V574H622.914V572.32H623.07C623.715 573.492 624.887 574.186 626.352 574.186ZM625.961 572.682C624.047 572.682 622.875 571.178 622.875 568.746V568.727C622.875 566.295 624.047 564.791 625.961 564.791C627.885 564.791 629.027 566.275 629.027 568.727V568.746C629.027 571.197 627.885 572.682 625.961 572.682ZM633.5 574H635.199V559.293H633.5V574ZM642.758 574.186C645.238 574.186 646.742 572.779 647.104 571.354L647.123 571.275H645.424L645.385 571.363C645.102 571.998 644.223 572.672 642.797 572.672C640.922 572.672 639.721 571.402 639.672 569.225H647.25V568.561C647.25 565.416 645.512 563.287 642.65 563.287C639.789 563.287 637.934 565.514 637.934 568.766V568.775C637.934 572.076 639.75 574.186 642.758 574.186ZM642.641 564.801C644.193 564.801 645.346 565.787 645.521 567.867H639.701C639.887 565.865 641.078 564.801 642.641 564.801ZM660.746 574.186C663.412 574.186 665.16 572.027 665.16 568.746V568.727C665.16 565.426 663.422 563.287 660.746 563.287C659.301 563.287 658.041 564.01 657.465 565.133H657.309V559.293H655.609V574H657.309V572.32H657.465C658.109 573.492 659.281 574.186 660.746 574.186ZM660.355 572.682C658.441 572.682 657.27 571.178 657.27 568.746V568.727C657.27 566.295 658.441 564.791 660.355 564.791C662.279 564.791 663.422 566.275 663.422 568.727V568.746C663.422 571.197 662.279 572.682 660.355 572.682ZM667.895 574H669.594V559.293H667.895V574ZM677.182 574.186C680.18 574.186 682.035 572.115 682.035 568.746V568.727C682.035 565.348 680.18 563.287 677.182 563.287C674.184 563.287 672.328 565.348 672.328 568.727V568.746C672.328 572.115 674.184 574.186 677.182 574.186ZM677.182 572.682C675.189 572.682 674.066 571.227 674.066 568.746V568.727C674.066 566.236 675.189 564.791 677.182 564.791C679.174 564.791 680.297 566.236 680.297 568.727V568.746C680.297 571.227 679.174 572.682 677.182 572.682ZM688.979 574.186C691.508 574.186 692.924 572.828 693.354 570.924L693.373 570.816L691.693 570.826L691.674 570.885C691.283 572.057 690.385 572.682 688.969 572.682C687.094 572.682 685.883 571.129 685.883 568.707V568.688C685.883 566.314 687.074 564.791 688.969 564.791C690.482 564.791 691.42 565.631 691.684 566.666L691.693 566.695H693.383L693.373 566.637C693.061 564.762 691.527 563.287 688.969 563.287C686.02 563.287 684.145 565.416 684.145 568.688V568.707C684.145 572.047 686.029 574.186 688.979 574.186ZM695.961 574H697.66V570.006L698.646 569.049L702.592 574H704.73L699.838 567.896L704.428 563.473H702.367L697.816 568.072H697.66V559.293H695.961V574ZM710.541 574.186C713.07 574.186 714.486 572.828 714.916 570.924L714.936 570.816L713.256 570.826L713.236 570.885C712.846 572.057 711.947 572.682 710.531 572.682C708.656 572.682 707.445 571.129 707.445 568.707V568.688C707.445 566.314 708.637 564.791 710.531 564.791C712.045 564.791 712.982 565.631 713.246 566.666L713.256 566.695H714.945L714.936 566.637C714.623 564.762 713.09 563.287 710.531 563.287C707.582 563.287 705.707 565.416 705.707 568.688V568.707C705.707 572.047 707.592 574.186 710.541 574.186ZM717.523 574H719.223V567.77C719.223 565.924 720.287 564.791 721.967 564.791C723.646 564.791 724.428 565.699 724.428 567.594V574H726.127V567.184C726.127 564.684 724.809 563.287 722.445 563.287C720.893 563.287 719.906 563.941 719.379 565.055H719.223V559.293H717.523V574ZM732.094 574.186C733.51 574.186 734.613 573.57 735.277 572.447H735.434V574H737.133V566.793C737.133 564.605 735.697 563.287 733.129 563.287C730.883 563.287 729.281 564.4 729.008 566.051L728.998 566.109H730.697L730.707 566.08C730.98 565.26 731.811 564.791 733.07 564.791C734.643 564.791 735.434 565.494 735.434 566.793V567.75L732.416 567.936C729.965 568.082 728.578 569.166 728.578 571.041V571.061C728.578 572.975 730.092 574.186 732.094 574.186ZM730.316 571.021V571.002C730.316 569.957 731.02 569.391 732.621 569.293L735.434 569.117V570.074C735.434 571.578 734.174 572.711 732.445 572.711C731.225 572.711 730.316 572.086 730.316 571.021ZM741.137 561.441C741.781 561.441 742.309 560.914 742.309 560.27C742.309 559.625 741.781 559.098 741.137 559.098C740.492 559.098 739.965 559.625 739.965 560.27C739.965 560.914 740.492 561.441 741.137 561.441ZM740.277 574H741.977V563.473H740.277V574ZM745.18 574H746.879V567.77C746.879 565.924 747.943 564.791 749.623 564.791C751.303 564.791 752.084 565.699 752.084 567.594V574H753.783V567.184C753.783 564.684 752.465 563.287 750.102 563.287C748.549 563.287 747.562 563.941 747.035 565.055H746.879V563.473H745.18V574ZM765.463 574H767.182L771.078 563.473H769.281L766.4 572.145H766.244L763.363 563.473H761.566L765.463 574ZM777.23 574.186C779.711 574.186 781.215 572.779 781.576 571.354L781.596 571.275H779.896L779.857 571.363C779.574 571.998 778.695 572.672 777.27 572.672C775.395 572.672 774.193 571.402 774.145 569.225H781.723V568.561C781.723 565.416 779.984 563.287 777.123 563.287C774.262 563.287 772.406 565.514 772.406 568.766V568.775C772.406 572.076 774.223 574.186 777.23 574.186ZM777.113 564.801C778.666 564.801 779.818 565.787 779.994 567.867H774.174C774.359 565.865 775.551 564.801 777.113 564.801ZM784.359 574H786.059V567.477C786.059 565.934 787.211 564.908 788.832 564.908C789.203 564.908 789.525 564.947 789.877 565.006V563.355C789.711 563.326 789.35 563.287 789.027 563.287C787.602 563.287 786.615 563.932 786.215 565.035H786.059V563.473H784.359V574ZM792.875 561.441C793.52 561.441 794.047 560.914 794.047 560.27C794.047 559.625 793.52 559.098 792.875 559.098C792.23 559.098 791.703 559.625 791.703 560.27C791.703 560.914 792.23 561.441 792.875 561.441ZM792.016 574H793.715V563.473H792.016V574ZM797.621 574H799.32V564.879H801.713V563.473H799.32V562.35C799.32 561.197 799.809 560.602 801.02 560.602C801.322 560.602 801.605 560.611 801.811 560.65V559.293C801.459 559.225 801.088 559.195 800.678 559.195C798.676 559.195 797.621 560.201 797.621 562.301V563.473H795.873V564.879H797.621V574ZM805.062 561.441C805.707 561.441 806.234 560.914 806.234 560.27C806.234 559.625 805.707 559.098 805.062 559.098C804.418 559.098 803.891 559.625 803.891 560.27C803.891 560.914 804.418 561.441 805.062 561.441ZM804.203 574H805.902V563.473H804.203V574ZM811.996 574.186C813.412 574.186 814.516 573.57 815.18 572.447H815.336V574H817.035V566.793C817.035 564.605 815.6 563.287 813.031 563.287C810.785 563.287 809.184 564.4 808.91 566.051L808.9 566.109H810.6L810.609 566.08C810.883 565.26 811.713 564.791 812.973 564.791C814.545 564.791 815.336 565.494 815.336 566.793V567.75L812.318 567.936C809.867 568.082 808.48 569.166 808.48 571.041V571.061C808.48 572.975 809.994 574.186 811.996 574.186ZM810.219 571.021V571.002C810.219 569.957 810.922 569.391 812.523 569.293L815.336 569.117V570.074C815.336 571.578 814.076 572.711 812.348 572.711C811.127 572.711 810.219 572.086 810.219 571.021ZM825.375 574.186C828.041 574.186 829.789 572.027 829.789 568.746V568.727C829.789 565.426 828.051 563.287 825.375 563.287C823.93 563.287 822.67 564.01 822.094 565.133H821.938V559.293H820.238V574H821.938V572.32H822.094C822.738 573.492 823.91 574.186 825.375 574.186ZM824.984 572.682C823.07 572.682 821.898 571.178 821.898 568.746V568.727C821.898 566.295 823.07 564.791 824.984 564.791C826.908 564.791 828.051 566.275 828.051 568.727V568.746C828.051 571.197 826.908 572.682 824.984 572.682ZM832.523 574H834.223V559.293H832.523V574ZM841.781 574.186C844.262 574.186 845.766 572.779 846.127 571.354L846.146 571.275H844.447L844.408 571.363C844.125 571.998 843.246 572.672 841.82 572.672C839.945 572.672 838.744 571.402 838.695 569.225H846.273V568.561C846.273 565.416 844.535 563.287 841.674 563.287C838.812 563.287 836.957 565.514 836.957 568.766V568.775C836.957 572.076 838.773 574.186 841.781 574.186ZM841.664 564.801C843.217 564.801 844.369 565.787 844.545 567.867H838.725C838.91 565.865 840.102 564.801 841.664 564.801ZM859.77 574.186C862.436 574.186 864.184 572.027 864.184 568.746V568.727C864.184 565.426 862.445 563.287 859.77 563.287C858.324 563.287 857.064 564.01 856.488 565.133H856.332V559.293H854.633V574H856.332V572.32H856.488C857.133 573.492 858.305 574.186 859.77 574.186ZM859.379 572.682C857.465 572.682 856.293 571.178 856.293 568.746V568.727C856.293 566.295 857.465 564.791 859.379 564.791C861.303 564.791 862.445 566.275 862.445 568.727V568.746C862.445 571.197 861.303 572.682 859.379 572.682ZM867.328 577.691C869.193 577.691 870.062 577.008 870.932 574.645L875.043 563.473H873.256L870.375 572.135H870.219L867.328 563.473H865.512L869.408 574.01L869.213 574.635C868.832 575.846 868.246 576.285 867.279 576.285C867.045 576.285 866.781 576.275 866.576 576.236V577.633C866.811 577.672 867.104 577.691 867.328 577.691Z" fill="#94A1AE"/>
<path d="M831.859 546.166C833.266 546.166 834.398 545.57 834.945 544.574H835.121V546H837.934V538.656C837.934 536.361 836.322 535.014 833.471 535.014C830.766 535.014 828.988 536.264 828.764 538.148L828.754 538.236H831.391L831.41 538.197C831.635 537.562 832.289 537.201 833.314 537.201C834.486 537.201 835.121 537.729 835.121 538.656V539.545L832.523 539.701C829.848 539.857 828.354 540.99 828.354 542.924V542.943C828.354 544.896 829.809 546.166 831.859 546.166ZM831.137 542.768V542.748C831.137 541.967 831.732 541.508 832.953 541.43L835.121 541.293V542.084C835.121 543.217 834.135 544.086 832.816 544.086C831.83 544.086 831.137 543.588 831.137 542.768ZM840.727 546H843.578V539.779C843.578 538.324 844.379 537.377 845.697 537.377C847.045 537.377 847.67 538.178 847.67 539.691V546H850.521V539.047C850.521 536.479 849.232 535.014 846.84 535.014C845.307 535.014 844.242 535.746 843.754 536.908H843.578V535.248H840.727V546ZM858.061 546.225C861.371 546.225 863.363 544.135 863.363 540.629V540.609C863.363 537.133 861.342 535.014 858.061 535.014C854.779 535.014 852.758 537.143 852.758 540.609V540.629C852.758 544.125 854.75 546.225 858.061 546.225ZM858.061 543.988C856.537 543.988 855.678 542.748 855.678 540.629V540.609C855.678 538.51 856.547 537.25 858.061 537.25C859.564 537.25 860.443 538.51 860.443 540.609V540.629C860.443 542.748 859.574 543.988 858.061 543.988ZM865.688 546H868.539V539.779C868.539 538.324 869.34 537.377 870.658 537.377C872.006 537.377 872.631 538.178 872.631 539.691V546H875.482V539.047C875.482 536.479 874.193 535.014 871.801 535.014C870.268 535.014 869.203 535.746 868.715 536.908H868.539V535.248H865.688V546ZM879.232 549.789C881.889 549.789 883.305 548.832 884.262 545.99L887.924 535.248H884.916L882.66 543.393H882.465L880.209 535.248H877.074L880.854 546L880.756 546.41C880.551 547.25 879.965 547.641 878.949 547.641C878.686 547.641 878.402 547.631 878.207 547.611V549.76C878.539 549.779 878.9 549.789 879.232 549.789ZM889.906 546H892.758V539.516C892.758 538.285 893.539 537.377 894.652 537.377C895.766 537.377 896.42 538.051 896.42 539.203V546H899.271V539.389C899.271 538.227 900.014 537.377 901.166 537.377C902.357 537.377 902.943 538.031 902.943 539.33V546H905.795V538.617C905.795 536.4 904.457 535.014 902.318 535.014C900.814 535.014 899.564 535.805 899.076 536.996H898.9C898.461 535.756 897.377 535.014 895.912 535.014C894.506 535.014 893.393 535.717 892.934 536.928H892.758V535.248H889.906V546ZM913.334 546.225C916.645 546.225 918.637 544.135 918.637 540.629V540.609C918.637 537.133 916.615 535.014 913.334 535.014C910.053 535.014 908.031 537.143 908.031 540.609V540.629C908.031 544.125 910.023 546.225 913.334 546.225ZM913.334 543.988C911.811 543.988 910.951 542.748 910.951 540.629V540.609C910.951 538.51 911.82 537.25 913.334 537.25C914.838 537.25 915.717 538.51 915.717 540.609V540.629C915.717 542.748 914.848 543.988 913.334 543.988ZM924.516 546.225C926.049 546.225 927.143 545.512 927.631 544.34H927.807V546H930.658V535.248H927.807V541.459C927.807 542.914 927.045 543.861 925.639 543.861C924.291 543.861 923.715 543.07 923.715 541.547V535.248H920.863V542.201C920.863 544.76 922.104 546.225 924.516 546.225ZM937.797 546.225C940.551 546.225 942.514 544.838 942.514 542.709V542.699C942.514 541.107 941.508 540.209 939.359 539.75L937.572 539.369C936.459 539.125 936.059 538.793 936.059 538.217V538.207C936.059 537.484 936.762 537.025 937.748 537.025C938.812 537.025 939.447 537.562 939.604 538.139L939.613 538.188H942.26V538.148C942.143 536.42 940.58 535.014 937.758 535.014C935.072 535.014 933.275 536.361 933.275 538.383V538.393C933.275 540.004 934.291 541.01 936.342 541.449L938.139 541.83C939.232 542.074 939.662 542.436 939.662 543.012V543.031C939.662 543.744 938.92 544.213 937.826 544.213C936.703 544.213 936.049 543.734 935.824 543.07L935.805 543.031H933.002L933.012 543.07C933.217 544.916 934.877 546.225 937.797 546.225ZM944.945 546H947.797V531.137H944.945V546ZM952.025 549.789C954.682 549.789 956.098 548.832 957.055 545.99L960.717 535.248H957.709L955.453 543.393H955.258L953.002 535.248H949.867L953.646 546L953.549 546.41C953.344 547.25 952.758 547.641 951.742 547.641C951.479 547.641 951.195 547.631 951 547.611V549.76C951.332 549.779 951.693 549.789 952.025 549.789ZM887.484 574.225C890.629 574.225 892.016 572.408 892.348 571.061L892.367 570.963H889.711L889.682 571.021C889.486 571.432 888.793 572.096 887.543 572.096C886.029 572.096 885.082 571.07 885.053 569.303H892.455V568.414C892.455 565.162 890.502 563.014 887.367 563.014C884.232 563.014 882.23 565.211 882.23 568.629V568.639C882.23 572.086 884.213 574.225 887.484 574.225ZM887.416 565.152C888.656 565.152 889.545 565.953 889.721 567.516H885.082C885.258 565.992 886.176 565.152 887.416 565.152ZM897.309 574H900.512L904.232 563.248H901.234L899.027 571.334H898.852L896.625 563.248H893.568L897.309 574ZM910.434 574.225C913.578 574.225 914.965 572.408 915.297 571.061L915.316 570.963H912.66L912.631 571.021C912.436 571.432 911.742 572.096 910.492 572.096C908.979 572.096 908.031 571.07 908.002 569.303H915.404V568.414C915.404 565.162 913.451 563.014 910.316 563.014C907.182 563.014 905.18 565.211 905.18 568.629V568.639C905.18 572.086 907.162 574.225 910.434 574.225ZM910.365 565.152C911.605 565.152 912.494 565.953 912.67 567.516H908.031C908.207 565.992 909.125 565.152 910.365 565.152ZM917.738 574H920.59V567.984C920.59 566.461 921.615 565.533 923.236 565.533C923.676 565.533 924.115 565.602 924.545 565.699V563.209C924.262 563.131 923.861 563.072 923.48 563.072C922.084 563.072 921.107 563.756 920.766 564.918H920.59V563.248H917.738V574ZM927.924 577.789C930.58 577.789 931.996 576.832 932.953 573.99L936.615 563.248H933.607L931.352 571.393H931.156L928.9 563.248H925.766L929.545 574L929.447 574.41C929.242 575.25 928.656 575.641 927.641 575.641C927.377 575.641 927.094 575.631 926.898 575.611V577.76C927.23 577.779 927.592 577.789 927.924 577.789ZM942.924 574.225C946.234 574.225 948.227 572.135 948.227 568.629V568.609C948.227 565.133 946.205 563.014 942.924 563.014C939.643 563.014 937.621 565.143 937.621 568.609V568.629C937.621 572.125 939.613 574.225 942.924 574.225ZM942.924 571.988C941.4 571.988 940.541 570.748 940.541 568.629V568.609C940.541 566.51 941.41 565.25 942.924 565.25C944.428 565.25 945.307 566.51 945.307 568.609V568.629C945.307 570.748 944.438 571.988 942.924 571.988ZM950.551 574H953.402V567.779C953.402 566.324 954.203 565.377 955.521 565.377C956.869 565.377 957.494 566.178 957.494 567.691V574H960.346V567.047C960.346 564.479 959.057 563.014 956.664 563.014C955.131 563.014 954.066 563.746 953.578 564.908H953.402V563.248H950.551V574ZM967.836 574.225C970.98 574.225 972.367 572.408 972.699 571.061L972.719 570.963H970.062L970.033 571.021C969.838 571.432 969.145 572.096 967.895 572.096C966.381 572.096 965.434 571.07 965.404 569.303H972.807V568.414C972.807 565.162 970.854 563.014 967.719 563.014C964.584 563.014 962.582 565.211 962.582 568.629V568.639C962.582 572.086 964.564 574.225 967.836 574.225ZM967.768 565.152C969.008 565.152 969.896 565.953 970.072 567.516H965.434C965.609 565.992 966.527 565.152 967.768 565.152ZM976.684 574.098C977.387 574.098 977.953 573.521 977.953 572.828C977.953 572.125 977.387 571.559 976.684 571.559C975.99 571.559 975.414 572.125 975.414 572.828C975.414 573.521 975.99 574.098 976.684 574.098Z" fill="url(#paint0_linear_511977_787)"/>
<path d="M343.438 415H373.312V407.219H352.875V395.812H372.156V388.562H352.875V377.688H373.312V369.906H343.438V415ZM382.656 415H391.781V367.438H382.656V415ZM405.875 375.312C408.688 375.312 411 373.062 411 370.25C411 367.406 408.688 365.156 405.875 365.156C403.062 365.156 400.719 367.406 400.719 370.25C400.719 373.062 403.062 375.312 405.875 375.312ZM401.281 415H410.406V380.594H401.281V415ZM419.594 415H428.719V394.25C428.719 390.312 431.219 387.406 434.781 387.406C438.344 387.406 440.438 389.562 440.438 393.25V415H449.562V393.844C449.562 390.125 451.938 387.406 455.625 387.406C459.438 387.406 461.312 389.5 461.312 393.656V415H470.438V391.375C470.438 384.281 466.156 379.844 459.312 379.844C454.5 379.844 450.5 382.375 448.938 386.188H448.375C446.969 382.219 443.5 379.844 438.812 379.844C434.312 379.844 430.75 382.094 429.281 385.969H428.719V380.594H419.594V415ZM483.938 375.312C486.75 375.312 489.062 373.062 489.062 370.25C489.062 367.406 486.75 365.156 483.938 365.156C481.125 365.156 478.781 367.406 478.781 370.25C478.781 373.062 481.125 375.312 483.938 375.312ZM479.344 415H488.469V380.594H479.344V415ZM497.656 415H506.781V395.094C506.781 390.438 509.344 387.406 513.562 387.406C517.875 387.406 519.875 389.969 519.875 394.812V415H529V392.75C529 384.531 524.875 379.844 517.219 379.844C512.312 379.844 508.906 382.188 507.344 385.906H506.781V380.594H497.656V415ZM547.219 415.531C551.719 415.531 555.344 413.625 557.094 410.438H557.656V415H566.656V391.5C566.656 384.156 561.5 379.844 552.375 379.844C543.719 379.844 538.031 383.844 537.312 389.875L537.281 390.156H545.719L545.781 390.031C546.5 388 548.594 386.844 551.875 386.844C555.625 386.844 557.656 388.531 557.656 391.5V394.344L549.344 394.844C540.781 395.344 536 398.969 536 405.156V405.219C536 411.469 540.656 415.531 547.219 415.531ZM544.906 404.656V404.594C544.906 402.094 546.812 400.625 550.719 400.375L557.656 399.938V402.469C557.656 406.094 554.5 408.875 550.281 408.875C547.125 408.875 544.906 407.281 544.906 404.656ZM589.875 415.125C591.625 415.125 593.312 414.938 594.438 414.719V407.938C593.562 408.031 592.938 408.094 591.75 408.094C588.656 408.094 587.344 406.719 587.344 403.625V387.469H594.438V380.594H587.344V372.375H578.125V380.594H572.812V387.469H578.125V405.719C578.125 412.406 581.5 415.125 589.875 415.125ZM616.906 415.719C626.969 415.719 631.406 409.906 632.469 405.594L632.531 405.281H624.031L623.938 405.469C623.312 406.781 621.094 408.906 617.094 408.906C612.25 408.906 609.219 405.625 609.125 399.969H632.812V397.125C632.812 386.719 626.562 379.844 616.531 379.844C606.5 379.844 600.094 386.875 600.094 397.812V397.844C600.094 408.875 606.438 415.719 616.906 415.719ZM616.688 386.688C620.656 386.688 623.5 389.25 624.062 394.25H609.219C609.781 389.375 612.719 386.688 616.688 386.688Z" fill="url(#paint1_linear_511977_787)"/>
<path d="M658.875 415H665.875V396.125H685.25V390.219H665.875V375.938H687.031V369.906H658.875V415ZM702.656 415.562C707.156 415.562 710.719 413.625 712.719 410.188H713.25V415H719.969V391.781C719.969 384.656 715.156 380.406 706.625 380.406C698.906 380.406 693.562 384.125 692.75 389.688L692.719 389.906H699.25L699.281 389.781C700.094 387.375 702.562 386 706.312 386C710.906 386 713.25 388.062 713.25 391.781V394.781L704.062 395.312C695.969 395.812 691.406 399.344 691.406 405.406V405.469C691.406 411.625 696.188 415.562 702.656 415.562ZM698.156 405.188V405.125C698.156 402.062 700.281 400.375 704.969 400.094L713.25 399.562V402.469C713.25 406.844 709.531 410.156 704.469 410.156C700.812 410.156 698.156 408.312 698.156 405.188ZM729.844 415H736.625V402.656L739.531 399.75L751.219 415H759.469L744.375 395.375L758.531 381.062H750.594L737.125 395.375H736.625V367.75H729.844V415ZM778.156 415.656C786.844 415.656 791.531 410.656 792.656 406.188L792.719 405.906L786.188 405.938L786.062 406.188C785.25 407.938 782.656 410.094 778.312 410.094C772.719 410.094 769.156 406.312 769.031 399.812H793.094V397.438C793.094 387.25 787.281 380.406 777.812 380.406C768.344 380.406 762.219 387.5 762.219 398.094V398.125C762.219 408.875 768.219 415.656 778.156 415.656ZM777.844 385.969C782.438 385.969 785.844 388.906 786.375 394.969H769.125C769.719 389.125 773.219 385.969 777.844 385.969ZM815.969 415H823.312L827.406 402.812H844.656L848.719 415H856.094L839.812 369.906H832.25L815.969 415ZM835.75 377.812H836.281L842.781 397.188H829.281L835.75 377.812ZM875.562 415.656C883.969 415.656 888.812 411.125 890.031 404.531L890.094 404.25H883.594L883.531 404.406C882.438 408.062 879.812 410 875.562 410C869.969 410 866.5 405.438 866.5 397.938V397.875C866.5 390.562 869.906 386.062 875.562 386.062C880.062 386.062 882.812 388.562 883.562 391.906L883.594 392L890.094 391.969V391.812C889.156 385.219 884.062 380.406 875.531 380.406C865.625 380.406 859.594 387.125 859.594 397.875V397.938C859.594 408.906 865.656 415.656 875.562 415.656ZM912.062 415.656C920.469 415.656 925.312 411.125 926.531 404.531L926.594 404.25H920.094L920.031 404.406C918.938 408.062 916.312 410 912.062 410C906.469 410 903 405.438 903 397.938V397.875C903 390.562 906.406 386.062 912.062 386.062C916.562 386.062 919.312 388.562 920.062 391.906L920.094 392L926.594 391.969V391.812C925.656 385.219 920.562 380.406 912.031 380.406C902.125 380.406 896.094 387.125 896.094 397.875V397.938C896.094 408.906 902.156 415.656 912.062 415.656ZM948.656 415.656C958.594 415.656 964.688 409 964.688 398.062V398C964.688 387.062 958.562 380.406 948.656 380.406C938.719 380.406 932.594 387.094 932.594 398V398.062C932.594 409 938.688 415.656 948.656 415.656ZM948.656 410C942.812 410 939.531 405.594 939.531 398.062V398C939.531 390.469 942.812 386.062 948.656 386.062C954.469 386.062 957.781 390.469 957.781 398V398.062C957.781 405.562 954.469 410 948.656 410ZM984.094 415.656C989.031 415.656 992.469 413.531 994.094 409.875H994.625V415H1001.38V381.062H994.625V400.969C994.625 406.438 991.719 409.844 986.281 409.844C981.312 409.844 979.25 407.062 979.25 401.438V381.062H972.469V403.031C972.469 411.062 976.438 415.656 984.094 415.656ZM1011.16 415H1017.94V395.094C1017.94 389.625 1021.03 386.219 1026 386.219C1030.97 386.219 1033.31 389 1033.31 394.625V415H1040.06V393.031C1040.06 384.938 1035.88 380.406 1028.28 380.406C1023.34 380.406 1020.09 382.594 1018.44 386.219H1017.94V381.062H1011.16V415ZM1062.34 415.219C1063.66 415.219 1064.91 415.062 1066 414.875V409.469C1065.06 409.562 1064.47 409.594 1063.44 409.594C1060.09 409.594 1058.72 408.094 1058.72 404.438V386.406H1066V381.062H1058.72V372.5H1051.81V381.062H1046.5V386.406H1051.81V406.062C1051.81 412.594 1054.88 415.219 1062.34 415.219ZM1085.75 415.656C1093.81 415.656 1099.81 411.375 1099.81 405.094V405.031C1099.81 400.125 1096.69 397.344 1090.16 395.812L1084.78 394.594C1080.97 393.688 1079.41 392.375 1079.41 390.25V390.188C1079.41 387.469 1082.09 385.625 1085.81 385.625C1089.62 385.625 1092.03 387.406 1092.69 389.781V389.844H1099.16V389.812C1098.56 384.281 1093.59 380.406 1085.84 380.406C1078.16 380.406 1072.66 384.656 1072.66 390.562V390.594C1072.66 395.562 1075.62 398.469 1082.03 399.938L1087.44 401.188C1091.38 402.094 1092.97 403.531 1092.97 405.656V405.719C1092.97 408.5 1090.06 410.406 1085.88 410.406C1081.84 410.406 1079.38 408.688 1078.53 406.125L1078.5 406.094H1071.72V406.125C1072.38 411.812 1077.56 415.656 1085.75 415.656ZM465.531 473.844C471.688 473.844 476.531 472.031 480.125 468.938L483.844 473H492.031V472.969L483.969 464.406C486.531 460.25 487.75 455.031 487.75 449.156V447.875H481.656V448.906C481.656 452.938 480.969 456.625 479.531 459.719L469.344 448.906C476.312 445.125 478.938 441.656 478.938 437.219V437.156C478.938 431.219 473.938 426.969 467.031 426.969C460.156 426.969 455.031 431.281 455.031 437.188V437.25C455.031 440.312 456.469 442.969 460.719 447.688L458.938 448.594C452.938 451.625 450.094 455.625 450.094 461.031V461.094C450.094 468.656 456.344 473.844 465.531 473.844ZM461.312 437.531V437.469C461.312 434.281 463.719 432 467.062 432C470.469 432 472.812 434.281 472.812 437.469V437.531C472.812 440.406 471.125 442.562 465.969 445.281C462.469 441.531 461.312 439.75 461.312 437.531ZM456.781 460.562V460.5C456.781 457.062 458.875 454.219 462.812 452.281L464.25 451.562L476.156 464.594C473.719 467 470.406 468.406 466.188 468.406C460.562 468.406 456.781 465.25 456.781 460.562ZM528.656 473H536.375L552.438 427.906H544.844L532.781 464.562H532.25L520.188 427.906H512.594L528.656 473ZM570.531 473.656C580.469 473.656 586.562 467 586.562 456.062V456C586.562 445.062 580.438 438.406 570.531 438.406C560.594 438.406 554.469 445.094 554.469 456V456.062C554.469 467 560.562 473.656 570.531 473.656ZM570.531 468C564.688 468 561.406 463.594 561.406 456.062V456C561.406 448.469 564.688 444.062 570.531 444.062C576.344 444.062 579.656 448.469 579.656 456V456.062C579.656 463.562 576.344 468 570.531 468ZM607.469 473.219C608.781 473.219 610.031 473.062 611.125 472.875V467.469C610.188 467.562 609.594 467.594 608.562 467.594C605.219 467.594 603.844 466.094 603.844 462.438V444.406H611.125V439.062H603.844V430.5H596.938V439.062H591.625V444.406H596.938V464.062C596.938 470.594 600 473.219 607.469 473.219ZM632.906 473.656C641.594 473.656 646.281 468.656 647.406 464.188L647.469 463.906L640.938 463.938L640.812 464.188C640 465.938 637.406 468.094 633.062 468.094C627.469 468.094 623.906 464.312 623.781 457.812H647.844V455.438C647.844 445.25 642.031 438.406 632.562 438.406C623.094 438.406 616.969 445.5 616.969 456.094V456.125C616.969 466.875 622.969 473.656 632.906 473.656ZM632.594 443.969C637.188 443.969 640.594 446.906 641.125 452.969H623.875C624.469 447.125 627.969 443.969 632.594 443.969ZM685.625 473H692.625V433.938H706.781V427.906H671.438V433.938H685.625V473ZM717.531 473.562C722.031 473.562 725.594 471.625 727.594 468.188H728.125V473H734.844V449.781C734.844 442.656 730.031 438.406 721.5 438.406C713.781 438.406 708.438 442.125 707.625 447.688L707.594 447.906H714.125L714.156 447.781C714.969 445.375 717.438 444 721.188 444C725.781 444 728.125 446.062 728.125 449.781V452.781L718.938 453.312C710.844 453.812 706.281 457.344 706.281 463.406V463.469C706.281 469.625 711.062 473.562 717.531 473.562ZM713.031 463.188V463.125C713.031 460.062 715.156 458.375 719.844 458.094L728.125 457.562V460.469C728.125 464.844 724.406 468.156 719.344 468.156C715.688 468.156 713.031 466.312 713.031 463.188ZM744.406 473H751.188V452.156C751.188 447.719 754.219 444.219 758.312 444.219C762.312 444.219 764.844 446.656 764.844 450.531V473H771.594V451.531C771.594 447.438 774.438 444.219 778.75 444.219C783.188 444.219 785.312 446.531 785.312 451.219V473H792.062V449.594C792.062 442.531 788.062 438.406 781.219 438.406C776.5 438.406 772.594 440.812 770.875 444.469H770.344C768.844 440.812 765.562 438.406 760.938 438.406C756.5 438.406 753.188 440.562 751.688 444.281H751.188V439.062H744.406V473ZM801.531 484.312H808.312V467.625H808.812C810.625 471.281 814.594 473.562 819.25 473.562C827.875 473.562 833.312 466.812 833.312 456.062V456C833.312 445.312 827.812 438.469 819.25 438.469C814.5 438.469 810.781 440.688 808.812 444.406H808.312V439.062H801.531V484.312ZM817.344 467.781C811.688 467.781 808.188 463.312 808.188 456.062V456C808.188 448.75 811.688 444.281 817.344 444.281C823 444.281 826.406 448.688 826.406 456V456.062C826.406 463.344 823 467.781 817.344 467.781ZM855.719 473.656C864.406 473.656 869.094 468.656 870.219 464.188L870.281 463.906L863.75 463.938L863.625 464.188C862.812 465.938 860.219 468.094 855.875 468.094C850.281 468.094 846.719 464.312 846.594 457.812H870.656V455.438C870.656 445.25 864.844 438.406 855.375 438.406C845.906 438.406 839.781 445.5 839.781 456.094V456.125C839.781 466.875 845.781 473.656 855.719 473.656ZM855.406 443.969C860 443.969 863.406 446.906 863.938 452.969H846.688C847.281 447.125 850.781 443.969 855.406 443.969ZM878.719 473H885.5V452.719C885.5 447.812 889.031 444.625 894.219 444.625C895.5 444.625 896.656 444.781 897.875 445.031V438.781C897.188 438.625 896 438.469 894.906 438.469C890.375 438.469 887.219 440.594 886 444.188H885.5V439.062H878.719V473ZM907.875 433C910.188 433 912.125 431.094 912.125 428.781C912.125 426.438 910.188 424.531 907.875 424.531C905.531 424.531 903.625 426.438 903.625 428.781C903.625 431.094 905.531 433 907.875 433ZM904.469 473H911.219V439.062H904.469V473ZM921.094 473H927.875V453.094C927.875 447.625 930.969 444.219 935.938 444.219C940.906 444.219 943.25 447 943.25 452.625V473H950V451.031C950 442.938 945.812 438.406 938.219 438.406C933.281 438.406 930.031 440.594 928.375 444.219H927.875V439.062H921.094V473ZM973.812 484.969C983.438 484.969 989.531 480.031 989.531 472.312V439.062H982.781V444.625H982.375C980.406 440.812 976.719 438.469 971.969 438.469C963.156 438.469 957.75 445.312 957.75 455V455.062C957.75 464.625 963.125 471.344 971.844 471.344C976.5 471.344 980.25 469.281 982.312 465.594H982.812V472.281C982.812 476.906 979.5 479.531 973.906 479.531C969.312 479.531 966.562 477.875 966 475.531L965.969 475.469H959.125L959.062 475.531C959.875 481.188 965.188 484.969 973.812 484.969ZM973.719 465.75C967.938 465.75 964.688 461.344 964.688 455.031V454.969C964.688 448.656 967.938 444.219 973.719 444.219C979.438 444.219 982.938 448.656 982.938 454.969V455.031C982.938 461.375 979.469 465.75 973.719 465.75Z" fill="#F7FAFC"/>
<path d="M645.881 -113.758L-122 271.811L-122 980.411L917.32 993L1587 505.187L1539.27 -151L645.881 -113.758Z" stroke="url(#paint2_linear_511977_787)" stroke-width="100"/>
</g>
<defs>
<linearGradient id="paint0_linear_511977_787" x1="498.596" y1="530.214" x2="581.229" y2="724.095" gradientUnits="userSpaceOnUse">
<stop stop-color="#0085FF"/>
<stop offset="1" stop-color="#EA6CFF"/>
</linearGradient>
<linearGradient id="paint1_linear_511977_787" x1="348.315" y1="372.202" x2="530.206" y2="718.895" gradientUnits="userSpaceOnUse">
<stop stop-color="#0085FF"/>
<stop offset="0.447917" stop-color="#EA6CFF"/>
</linearGradient>
<linearGradient id="paint2_linear_511977_787" x1="-75.7146" y1="-86.4946" x2="1504.03" y2="542.219" gradientUnits="userSpaceOnUse">
<stop stop-color="#0085FF"/>
<stop offset="1" stop-color="#EA6CFF"/>
</linearGradient>
<clipPath id="clip0_511977_787">
<rect width="1440" height="930" fill="white"/>
</clipPath>
</defs>
</svg>
