<svg width="42" height="42" viewBox="0 0 42 42" fill="none" xmlns="http://www.w3.org/2000/svg">
<path d="M22.3759 4.54126H19.622C19.3772 4.54126 19.2548 4.66366 19.2548 4.90845V19.3206H5.57813C5.33333 19.3206 5.21094 19.443 5.21094 19.6877V22.4417C5.21094 22.6864 5.33333 22.8088 5.57813 22.8088H19.2548V37.221C19.2548 37.4657 19.3772 37.5881 19.622 37.5881H22.3759C22.6207 37.5881 22.7431 37.4657 22.7431 37.221V22.8088H36.4219C36.6667 22.8088 36.7891 22.6864 36.7891 22.4417V19.6877C36.7891 19.443 36.6667 19.3206 36.4219 19.3206H22.7431V4.90845C22.7431 4.66366 22.6207 4.54126 22.3759 4.54126Z" fill="black" fill-opacity="0.45"/>
</svg>
