<svg width="141" height="80" viewBox="0 0 141 80" fill="none" xmlns="http://www.w3.org/2000/svg">
<path fill-rule="evenodd" clip-rule="evenodd" d="M135.788 22H5.7876C4.13074 22 2.7876 23.3431 2.7876 25V55C2.7876 56.6569 4.13074 58 5.7876 58H135.788C137.444 58 138.788 56.6569 138.788 55V25C138.788 23.3431 137.444 22 135.788 22ZM5.7876 20C3.02617 20 0.787598 22.2386 0.787598 25V55C0.787598 57.7614 3.02617 60 5.7876 60H135.788C138.549 60 140.788 57.7614 140.788 55V25C140.788 22.2386 138.549 20 135.788 20H5.7876Z" fill="url(#paint0_linear_511993_14650)"/>
<path d="M33.5474 46.3164C36.5884 46.3164 38.4956 44.7695 38.4956 42.2998V42.291C38.4956 40.375 37.3794 39.3027 34.7075 38.7402L33.3452 38.4502C31.7632 38.1162 31.1216 37.5537 31.1216 36.6572V36.6484C31.1216 35.5674 32.1235 34.9082 33.5298 34.9082C34.98 34.8994 35.9204 35.6025 36.0786 36.5869L36.0962 36.6924H38.2671L38.2583 36.5781C38.1001 34.5391 36.3511 33.001 33.5386 33.001C30.7964 33.001 28.8452 34.5303 28.8452 36.7979V36.8066C28.8452 38.6963 29.9702 39.9092 32.563 40.4541L33.9253 40.7354C35.5601 41.0869 36.2192 41.6406 36.2192 42.5547V42.5635C36.2192 43.6533 35.147 44.4092 33.6177 44.4092C32.0093 44.4092 30.8755 43.7061 30.77 42.6426L30.7612 42.5547H28.564L28.5728 42.6777C28.731 44.8662 30.603 46.3164 33.5474 46.3164Z" fill="url(#paint1_linear_511993_14650)"/>
<path d="M44.5952 46.0439C45.0171 46.0439 45.4214 46.0088 45.7378 45.9473V44.2598C45.4741 44.2861 45.3071 44.2949 44.9995 44.2949C44.0854 44.2949 43.7075 43.8906 43.7075 42.9326V38.0898H45.7378V36.3936H43.7075V34.0381H41.4839V36.3936H39.9897V38.0898H41.4839V43.4512C41.4839 45.3057 42.3892 46.0439 44.5952 46.0439Z" fill="url(#paint2_linear_511993_14650)"/>
<path d="M50.5366 46.1582C51.8022 46.1582 52.8218 45.6133 53.3491 44.6816H53.4985V46H55.6606V39.4346C55.6606 37.4043 54.272 36.209 51.8022 36.209C49.5171 36.209 47.9702 37.2812 47.7593 38.8984L47.7505 38.9775H49.8159L49.8247 38.9424C50.0444 38.3096 50.6948 37.9492 51.6968 37.9492C52.8745 37.9492 53.4985 38.4766 53.4985 39.4346V40.2607L51.0288 40.4102C48.6909 40.5508 47.3813 41.5527 47.3813 43.2666V43.2842C47.3813 45.0332 48.7085 46.1582 50.5366 46.1582ZM49.5435 43.1787V43.1611C49.5435 42.3701 50.1147 41.9219 51.3364 41.8428L53.4985 41.7021V42.4756C53.4985 43.6182 52.5229 44.4795 51.2046 44.4795C50.2378 44.4795 49.5435 43.9961 49.5435 43.1787Z" fill="url(#paint3_linear_511993_14650)"/>
<path d="M58.2886 46H60.4771V40.4189C60.4771 39.0479 61.4351 38.1777 62.894 38.1777C63.272 38.1777 63.6323 38.2305 63.9839 38.3008V36.3408C63.7729 36.2793 63.4302 36.2354 63.0962 36.2354C61.8306 36.2354 60.9517 36.8418 60.6265 37.8701H60.4771V36.3936H58.2886V46Z" fill="url(#paint4_linear_511993_14650)"/>
<path d="M69.7671 46.0439C70.189 46.0439 70.5933 46.0088 70.9097 45.9473V44.2598C70.646 44.2861 70.479 44.2949 70.1714 44.2949C69.2573 44.2949 68.8794 43.8906 68.8794 42.9326V38.0898H70.9097V36.3936H68.8794V34.0381H66.6558V36.3936H65.1616V38.0898H66.6558V43.4512C66.6558 45.3057 67.561 46.0439 69.7671 46.0439Z" fill="url(#paint5_linear_511993_14650)"/>
<path d="M80.4722 46H82.8716L86.2729 36.3936H83.9702L81.7642 43.8643H81.6147L79.3911 36.3936H77.0532L80.4722 46Z" fill="url(#paint6_linear_511993_14650)"/>
<path d="M91.8804 46.1934C94.7544 46.1934 96.5034 44.3125 96.5034 41.2012V41.1836C96.5034 38.0898 94.7456 36.209 91.8804 36.209C89.0239 36.209 87.2573 38.0986 87.2573 41.1836V41.2012C87.2573 44.3125 88.9976 46.1934 91.8804 46.1934ZM91.8804 44.418C90.3599 44.418 89.4897 43.2314 89.4897 41.21V41.1924C89.4897 39.1709 90.3599 37.9756 91.8804 37.9756C93.3921 37.9756 94.2622 39.1709 94.2622 41.1924V41.21C94.2622 43.2314 93.4009 44.418 91.8804 44.418Z" fill="url(#paint7_linear_511993_14650)"/>
<path d="M102.48 46.0439C102.902 46.0439 103.306 46.0088 103.623 45.9473V44.2598C103.359 44.2861 103.192 44.2949 102.884 44.2949C101.97 44.2949 101.592 43.8906 101.592 42.9326V38.0898H103.623V36.3936H101.592V34.0381H99.3687V36.3936H97.8745V38.0898H99.3687V43.4512C99.3687 45.3057 100.274 46.0439 102.48 46.0439Z" fill="url(#paint8_linear_511993_14650)"/>
<path d="M109.828 46.1934C112.438 46.1934 113.721 44.6904 114.029 43.4512L114.055 43.3721H111.972L111.946 43.4336C111.735 43.873 111.058 44.4707 109.872 44.4707C108.386 44.4707 107.455 43.4688 107.428 41.7461H114.143V41.0254C114.143 38.125 112.456 36.209 109.722 36.209C106.989 36.209 105.24 38.1865 105.24 41.21V41.2188C105.24 44.2773 106.971 46.1934 109.828 46.1934ZM109.749 37.9229C110.97 37.9229 111.858 38.7051 112.007 40.2783H107.446C107.613 38.749 108.527 37.9229 109.749 37.9229Z" fill="url(#paint9_linear_511993_14650)"/>
<defs>
<linearGradient id="paint0_linear_511993_14650" x1="4.57926" y1="22.2554" x2="84.7688" y2="97.0269" gradientUnits="userSpaceOnUse">
<stop stop-color="#0085FF"/>
<stop offset="1" stop-color="#EA6CFF"/>
</linearGradient>
<linearGradient id="paint1_linear_511993_14650" x1="4.57926" y1="22.2554" x2="84.7688" y2="97.0269" gradientUnits="userSpaceOnUse">
<stop stop-color="#0085FF"/>
<stop offset="1" stop-color="#EA6CFF"/>
</linearGradient>
<linearGradient id="paint2_linear_511993_14650" x1="4.57926" y1="22.2554" x2="84.7688" y2="97.0269" gradientUnits="userSpaceOnUse">
<stop stop-color="#0085FF"/>
<stop offset="1" stop-color="#EA6CFF"/>
</linearGradient>
<linearGradient id="paint3_linear_511993_14650" x1="4.57926" y1="22.2554" x2="84.7688" y2="97.0269" gradientUnits="userSpaceOnUse">
<stop stop-color="#0085FF"/>
<stop offset="1" stop-color="#EA6CFF"/>
</linearGradient>
<linearGradient id="paint4_linear_511993_14650" x1="4.57926" y1="22.2554" x2="84.7688" y2="97.0269" gradientUnits="userSpaceOnUse">
<stop stop-color="#0085FF"/>
<stop offset="1" stop-color="#EA6CFF"/>
</linearGradient>
<linearGradient id="paint5_linear_511993_14650" x1="4.57926" y1="22.2554" x2="84.7688" y2="97.0269" gradientUnits="userSpaceOnUse">
<stop stop-color="#0085FF"/>
<stop offset="1" stop-color="#EA6CFF"/>
</linearGradient>
<linearGradient id="paint6_linear_511993_14650" x1="4.57926" y1="22.2554" x2="84.7688" y2="97.0269" gradientUnits="userSpaceOnUse">
<stop stop-color="#0085FF"/>
<stop offset="1" stop-color="#EA6CFF"/>
</linearGradient>
<linearGradient id="paint7_linear_511993_14650" x1="4.57926" y1="22.2554" x2="84.7688" y2="97.0269" gradientUnits="userSpaceOnUse">
<stop stop-color="#0085FF"/>
<stop offset="1" stop-color="#EA6CFF"/>
</linearGradient>
<linearGradient id="paint8_linear_511993_14650" x1="4.57926" y1="22.2554" x2="84.7688" y2="97.0269" gradientUnits="userSpaceOnUse">
<stop stop-color="#0085FF"/>
<stop offset="1" stop-color="#EA6CFF"/>
</linearGradient>
<linearGradient id="paint9_linear_511993_14650" x1="4.57926" y1="22.2554" x2="84.7688" y2="97.0269" gradientUnits="userSpaceOnUse">
<stop stop-color="#0085FF"/>
<stop offset="1" stop-color="#EA6CFF"/>
</linearGradient>
</defs>
</svg>
