<svg width="241" height="61" viewBox="0 0 241 61" fill="none" xmlns="http://www.w3.org/2000/svg">
<g clip-path="url(#clip0_512029_1450)">
<path d="M1.8938 1.5H235.894C238.103 1.5 239.894 3.29086 239.894 5.5V55.5C239.894 57.7091 238.103 59.5 235.894 59.5H1.8938V1.5Z" stroke="url(#paint0_linear_512029_1450)" stroke-width="2"/>
<path d="M58.1477 38.5H61.3118L62.718 34.1289H68.9758L70.3938 38.5H73.5579L67.5579 21.5898H64.1477L58.1477 38.5ZM65.7532 24.7305H65.9524L68.2258 31.7969H63.4797L65.7532 24.7305ZM80.0735 38.7109C81.8782 38.7109 83.261 37.8906 83.9641 36.4961H84.1633V38.5H87.093V20.7344H84.1633V27.7305H83.9641C83.2961 26.3477 81.8313 25.4805 80.0735 25.4805C76.8274 25.4805 74.8235 28.0117 74.8235 32.0898V32.1133C74.8235 36.168 76.8625 38.7109 80.0735 38.7109ZM80.9875 36.25C78.9954 36.25 77.7883 34.6914 77.7883 32.1133V32.0898C77.7883 29.5117 79.0071 27.9414 80.9875 27.9414C82.968 27.9414 84.2102 29.5234 84.2102 32.0898V32.1133C84.2102 34.6797 82.9797 36.25 80.9875 36.25ZM95.3782 38.7109C97.1829 38.7109 98.5657 37.8906 99.2688 36.4961H99.468V38.5H102.398V20.7344H99.468V27.7305H99.2688C98.6008 26.3477 97.136 25.4805 95.3782 25.4805C92.1321 25.4805 90.1282 28.0117 90.1282 32.0898V32.1133C90.1282 36.168 92.1672 38.7109 95.3782 38.7109ZM96.2922 36.25C94.3 36.25 93.093 34.6914 93.093 32.1133V32.0898C93.093 29.5117 94.3118 27.9414 96.2922 27.9414C98.2727 27.9414 99.5149 29.5234 99.5149 32.0898V32.1133C99.5149 34.6797 98.2844 36.25 96.2922 36.25ZM112.769 38.5H115.792V31.5977H122.882V29.1367H115.792V24.1328H123.55V21.5898H112.769V38.5ZM126.597 38.5H129.515V31.0586C129.515 29.2305 130.792 28.0703 132.738 28.0703C133.241 28.0703 133.722 28.1406 134.191 28.2344V25.6211C133.909 25.5391 133.452 25.4805 133.007 25.4805C131.32 25.4805 130.148 26.2891 129.714 27.6602H129.515V25.6914H126.597V38.5ZM138.081 23.5469C139.031 23.5469 139.816 22.7852 139.816 21.8242C139.816 20.875 139.031 20.1016 138.081 20.1016C137.12 20.1016 136.335 20.875 136.335 21.8242C136.335 22.7852 137.12 23.5469 138.081 23.5469ZM136.616 38.5H139.534V25.6914H136.616V38.5ZM148.605 38.7578C152.085 38.7578 153.796 36.7539 154.206 35.1016L154.241 34.9961H151.464L151.429 35.0781C151.148 35.6641 150.245 36.4609 148.663 36.4609C146.683 36.4609 145.441 35.125 145.406 32.8281H154.359V31.8672C154.359 28 152.109 25.4453 148.464 25.4453C144.82 25.4453 142.488 28.082 142.488 32.1133V32.125C142.488 36.2031 144.796 38.7578 148.605 38.7578ZM148.499 27.7305C150.128 27.7305 151.312 28.7734 151.511 30.8711H145.429C145.652 28.832 146.87 27.7305 148.499 27.7305ZM157.277 38.5H160.195V31.0352C160.195 29.1133 161.273 27.8945 163.007 27.8945C164.777 27.8945 165.585 28.9023 165.585 30.8945V38.5H168.503V30.2148C168.503 27.168 166.945 25.4453 164.085 25.4453C162.234 25.4453 161.003 26.2773 160.394 27.6484H160.195V25.6914H157.277V38.5ZM176.566 38.7109C178.37 38.7109 179.753 37.8906 180.456 36.4961H180.656V38.5H183.585V20.7344H180.656V27.7305H180.456C179.788 26.3477 178.323 25.4805 176.566 25.4805C173.32 25.4805 171.316 28.0117 171.316 32.0898V32.1133C171.316 36.168 173.355 38.7109 176.566 38.7109ZM177.48 36.25C175.488 36.25 174.281 34.6914 174.281 32.1133V32.0898C174.281 29.5117 175.499 27.9414 177.48 27.9414C179.46 27.9414 180.702 29.5234 180.702 32.0898V32.1133C180.702 34.6797 179.472 36.25 177.48 36.25Z" fill="url(#paint1_linear_512029_1450)"/>
</g>
<defs>
<linearGradient id="paint0_linear_512029_1450" x1="7.3938" y1="3.88315" x2="127.729" y2="132.117" gradientUnits="userSpaceOnUse">
<stop stop-color="#0085FF"/>
<stop offset="1" stop-color="#EA6CFF"/>
</linearGradient>
<linearGradient id="paint1_linear_512029_1450" x1="31.0667" y1="15.4171" x2="94.1936" y2="109.893" gradientUnits="userSpaceOnUse">
<stop stop-color="#0085FF"/>
<stop offset="1" stop-color="#EA6CFF"/>
</linearGradient>
<clipPath id="clip0_512029_1450">
<path d="M0.893799 0.5H235.894C238.655 0.5 240.894 2.73858 240.894 5.5V55.5C240.894 58.2614 238.655 60.5 235.894 60.5H0.893799V0.5Z" fill="white"/>
</clipPath>
</defs>
</svg>
