<svg width="241" height="60" viewBox="0 0 241 60" fill="none" xmlns="http://www.w3.org/2000/svg">
<g clip-path="url(#clip0_511977_725)">
<rect x="1.8938" y="1" width="238" height="58" rx="4" stroke="url(#paint0_linear_511977_725)" stroke-width="2"/>
<path d="M51.1868 36H56.6096C59.3167 36 60.969 34.6289 60.969 32.4053V32.3877C60.969 30.7441 59.7913 29.5137 58.0862 29.3555V29.1973C59.3606 28.9951 60.345 27.8174 60.345 26.4902V26.4727C60.345 24.5303 58.8948 23.3174 56.4866 23.3174H51.1868V36ZM55.9329 25.084C57.304 25.084 58.1038 25.7432 58.1038 26.8682V26.8857C58.1038 28.0371 57.2512 28.6611 55.6428 28.6611H53.4543V25.084H55.9329ZM56.0032 30.2695C57.7346 30.2695 58.6487 30.9463 58.6487 32.2295V32.2471C58.6487 33.5391 57.761 34.2334 56.0911 34.2334H53.4543V30.2695H56.0032ZM63.2102 36H65.3987V30.4189C65.3987 29.0479 66.3567 28.1777 67.8157 28.1777C68.1936 28.1777 68.554 28.2305 68.9055 28.3008V26.3408C68.6946 26.2793 68.3518 26.2354 68.0178 26.2354C66.7522 26.2354 65.8733 26.8418 65.5481 27.8701H65.3987V26.3936H63.2102V36ZM74.6008 36.1934C77.4749 36.1934 79.2239 34.3125 79.2239 31.2012V31.1836C79.2239 28.0898 77.4661 26.209 74.6008 26.209C71.7444 26.209 69.9778 28.0986 69.9778 31.1836V31.2012C69.9778 34.3125 71.718 36.1934 74.6008 36.1934ZM74.6008 34.418C73.0803 34.418 72.2102 33.2314 72.2102 31.21V31.1924C72.2102 29.1709 73.0803 27.9756 74.6008 27.9756C76.1125 27.9756 76.9827 29.1709 76.9827 31.1924V31.21C76.9827 33.2314 76.1213 34.418 74.6008 34.418ZM82.8625 36H85.1301L86.9934 29.0391H87.1428L89.0149 36H91.3088L93.9104 26.3936H91.7395L90.1487 33.6094H89.9993L88.136 26.3936H86.053L84.2073 33.6094H84.0579L82.4583 26.3936H80.261L82.8625 36ZM99.1838 36.1934C101.548 36.1934 103.262 34.9717 103.262 33.1436V33.126C103.262 31.7285 102.374 30.9287 100.493 30.5068L98.9377 30.1641C97.9006 29.9268 97.4963 29.584 97.4963 29.0215V29.0127C97.4963 28.292 98.1995 27.8174 99.175 27.8174C100.203 27.8174 100.836 28.3096 100.994 28.916L101.003 28.9424H103.06V28.9248C102.919 27.3691 101.522 26.209 99.1838 26.209C96.9163 26.209 95.3342 27.4043 95.3342 29.1357V29.1445C95.3342 30.5596 96.2043 31.4209 98.0325 31.8252L99.5881 32.1768C100.643 32.4141 101.065 32.7832 101.065 33.3457V33.3633C101.065 34.084 100.309 34.5762 99.219 34.5762C98.1292 34.5762 97.4875 34.1104 97.259 33.4424L97.2502 33.4248H95.0793V33.4424C95.2639 35.0684 96.7405 36.1934 99.1838 36.1934ZM109.581 36.1934C112.192 36.1934 113.475 34.6904 113.782 33.4512L113.809 33.3721H111.726L111.699 33.4336C111.489 33.873 110.812 34.4707 109.625 34.4707C108.14 34.4707 107.208 33.4688 107.182 31.7461H113.897V31.0254C113.897 28.125 112.209 26.209 109.476 26.209C106.742 26.209 104.993 28.1865 104.993 31.21V31.2188C104.993 34.2773 106.725 36.1934 109.581 36.1934ZM109.502 27.9229C110.724 27.9229 111.612 28.7051 111.761 30.2783H107.199C107.366 28.749 108.281 27.9229 109.502 27.9229ZM123.503 36.1582C124.769 36.1582 125.788 35.6133 126.316 34.6816H126.465V36H128.627V29.4346C128.627 27.4043 127.239 26.209 124.769 26.209C122.484 26.209 120.937 27.2812 120.726 28.8984L120.717 28.9775H122.782L122.791 28.9424C123.011 28.3096 123.661 27.9492 124.663 27.9492C125.841 27.9492 126.465 28.4766 126.465 29.4346V30.2607L123.995 30.4102C121.657 30.5508 120.348 31.5527 120.348 33.2666V33.2842C120.348 35.0332 121.675 36.1582 123.503 36.1582ZM122.51 33.1787V33.1611C122.51 32.3701 123.081 31.9219 124.303 31.8428L126.465 31.7021V32.4756C126.465 33.6182 125.49 34.4795 124.171 34.4795C123.204 34.4795 122.51 33.9961 122.51 33.1787ZM131.343 36H133.531V22.6758H131.343V36ZM136.388 36H138.576V22.6758H136.388V36ZM148.728 36H151.127L154.529 26.3936H152.226L150.02 33.8643H149.87L147.647 26.3936H145.309L148.728 36ZM160.136 36.1934C163.01 36.1934 164.759 34.3125 164.759 31.2012V31.1836C164.759 28.0898 163.001 26.209 160.136 26.209C157.28 26.209 155.513 28.0986 155.513 31.1836V31.2012C155.513 34.3125 157.253 36.1934 160.136 36.1934ZM160.136 34.418C158.615 34.418 157.745 33.2314 157.745 31.21V31.1924C157.745 29.1709 158.615 27.9756 160.136 27.9756C161.648 27.9756 162.518 29.1709 162.518 31.1924V31.21C162.518 33.2314 161.656 34.418 160.136 34.418ZM170.736 36.0439C171.157 36.0439 171.562 36.0088 171.878 35.9473V34.2598C171.615 34.2861 171.448 34.2949 171.14 34.2949C170.226 34.2949 169.848 33.8906 169.848 32.9326V28.0898H171.878V26.3936H169.848V24.0381H167.624V26.3936H166.13V28.0898H167.624V33.4512C167.624 35.3057 168.53 36.0439 170.736 36.0439ZM178.083 36.1934C180.694 36.1934 181.977 34.6904 182.284 33.4512L182.311 33.3721H180.228L180.201 33.4336C179.99 33.873 179.314 34.4707 178.127 34.4707C176.642 34.4707 175.71 33.4688 175.684 31.7461H182.399V31.0254C182.399 28.125 180.711 26.209 177.978 26.209C175.244 26.209 173.495 28.1865 173.495 31.21V31.2188C173.495 34.2773 175.227 36.1934 178.083 36.1934ZM178.004 27.9229C179.226 27.9229 180.114 28.7051 180.263 30.2783H175.701C175.868 28.749 176.782 27.9229 178.004 27.9229ZM188.217 36.1934C190.581 36.1934 192.295 34.9717 192.295 33.1436V33.126C192.295 31.7285 191.407 30.9287 189.527 30.5068L187.971 30.1641C186.934 29.9268 186.53 29.584 186.53 29.0215V29.0127C186.53 28.292 187.233 27.8174 188.208 27.8174C189.237 27.8174 189.869 28.3096 190.028 28.916L190.036 28.9424H192.093V28.9248C191.952 27.3691 190.555 26.209 188.217 26.209C185.949 26.209 184.367 27.4043 184.367 29.1357V29.1445C184.367 30.5596 185.238 31.4209 187.066 31.8252L188.621 32.1768C189.676 32.4141 190.098 32.7832 190.098 33.3457V33.3633C190.098 34.084 189.342 34.5762 188.252 34.5762C187.162 34.5762 186.521 34.1104 186.292 33.4424L186.283 33.4248H184.113V33.4424C184.297 35.0684 185.774 36.1934 188.217 36.1934Z" fill="url(#paint1_linear_511977_725)"/>
</g>
<defs>
<linearGradient id="paint0_linear_511977_725" x1="7.3938" y1="3.38315" x2="127.729" y2="131.617" gradientUnits="userSpaceOnUse">
<stop stop-color="#0085FF"/>
<stop offset="1" stop-color="#EA6CFF"/>
</linearGradient>
<linearGradient id="paint1_linear_511977_725" x1="31.0667" y1="18.466" x2="73.4084" y2="101.333" gradientUnits="userSpaceOnUse">
<stop stop-color="#0085FF"/>
<stop offset="1" stop-color="#EA6CFF"/>
</linearGradient>
<clipPath id="clip0_511977_725">
<rect x="0.893799" width="240" height="60" rx="5" fill="white"/>
</clipPath>
</defs>
</svg>
