<svg width="83" height="30" viewBox="0 0 83 30" fill="none" xmlns="http://www.w3.org/2000/svg">
<path d="M7.29541 20.7812C10.1626 20.7812 11.9282 19.1016 11.9282 16.6172V9.22656H9.9126V16.4531C9.9126 18.0078 8.9751 19.0391 7.30322 19.0391C5.62354 19.0391 4.67822 18.0078 4.67822 16.4531V9.22656H2.6626V16.6172C2.6626 19.1016 4.44385 20.7812 7.29541 20.7812ZM14.4985 20.5H16.4438V15.5234C16.4438 14.2422 17.1626 13.4297 18.3188 13.4297C19.4985 13.4297 20.0376 14.1016 20.0376 15.4297V20.5H21.9829V14.9766C21.9829 12.9453 20.9438 11.7969 19.0376 11.7969C17.8032 11.7969 16.9829 12.3516 16.5767 13.2656H16.4438V11.9609H14.4985V20.5ZM26.311 20.5H28.4438L31.4673 11.9609H29.4204L27.4595 18.6016H27.3267L25.3501 11.9609H23.272L26.311 20.5ZM36.4204 20.6719C38.7407 20.6719 39.8813 19.3359 40.1548 18.2344L40.1782 18.1641H38.3267L38.3032 18.2188C38.1157 18.6094 37.5142 19.1406 36.4595 19.1406C35.1392 19.1406 34.311 18.25 34.2876 16.7188H40.2563V16.0781C40.2563 13.5 38.7563 11.7969 36.3267 11.7969C33.897 11.7969 32.3423 13.5547 32.3423 16.2422V16.25C32.3423 18.9688 33.8813 20.6719 36.4204 20.6719ZM36.3501 13.3203C37.436 13.3203 38.2251 14.0156 38.3579 15.4141H34.3032C34.4517 14.0547 35.2642 13.3203 36.3501 13.3203ZM42.2017 20.5H44.147V15.5391C44.147 14.3203 44.9985 13.5469 46.2954 13.5469C46.6313 13.5469 46.9517 13.5938 47.2642 13.6562V11.9141C47.0767 11.8594 46.772 11.8203 46.4751 11.8203C45.3501 11.8203 44.5688 12.3594 44.2798 13.2734H44.147V11.9609H42.2017V20.5ZM49.8579 10.5312C50.4907 10.5312 51.0142 10.0234 51.0142 9.38281C51.0142 8.75 50.4907 8.23438 49.8579 8.23438C49.2173 8.23438 48.6938 8.75 48.6938 9.38281C48.6938 10.0234 49.2173 10.5312 49.8579 10.5312ZM48.8813 20.5H50.8267V11.9609H48.8813V20.5ZM53.8423 20.5H55.7876V13.4688H57.6079V11.9609H55.7563V11.2266C55.7563 10.4141 56.1079 9.97656 57.022 9.97656C57.2954 9.97656 57.5376 9.99219 57.686 10.0156V8.65625C57.3735 8.60156 57.022 8.57812 56.6079 8.57812C54.7095 8.57812 53.8423 9.41406 53.8423 11.1172V11.9609H52.4438V13.4688H53.8423V20.5ZM60.4829 10.5312C61.1157 10.5312 61.6392 10.0234 61.6392 9.38281C61.6392 8.75 61.1157 8.23438 60.4829 8.23438C59.8423 8.23438 59.3188 8.75 59.3188 9.38281C59.3188 10.0234 59.8423 10.5312 60.4829 10.5312ZM59.5063 20.5H61.4517V11.9609H59.5063V20.5ZM67.4985 20.6719C69.8188 20.6719 70.9595 19.3359 71.2329 18.2344L71.2563 18.1641H69.4048L69.3813 18.2188C69.1938 18.6094 68.5923 19.1406 67.5376 19.1406C66.2173 19.1406 65.3892 18.25 65.3657 16.7188H71.3345V16.0781C71.3345 13.5 69.8345 11.7969 67.4048 11.7969C64.9751 11.7969 63.4204 13.5547 63.4204 16.2422V16.25C63.4204 18.9688 64.9595 20.6719 67.4985 20.6719ZM67.4282 13.3203C68.5142 13.3203 69.3032 14.0156 69.436 15.4141H65.3813C65.5298 14.0547 66.3423 13.3203 67.4282 13.3203ZM76.3579 20.6406C77.561 20.6406 78.4829 20.0938 78.9517 19.1641H79.0845V20.5H81.0376V8.65625H79.0845V13.3203H78.9517C78.5063 12.3984 77.5298 11.8203 76.3579 11.8203C74.1938 11.8203 72.8579 13.5078 72.8579 16.2266V16.2422C72.8579 18.9453 74.2173 20.6406 76.3579 20.6406ZM76.9673 19C75.6392 19 74.8345 17.9609 74.8345 16.2422V16.2266C74.8345 14.5078 75.647 13.4609 76.9673 13.4609C78.2876 13.4609 79.1157 14.5156 79.1157 16.2266V16.2422C79.1157 17.9531 78.2954 19 76.9673 19Z" fill="#94A1AE"/>
</svg>
